2025-06-30 23:25:16,484 - INFO - Available MIDI outputs: ['IAC Driver Bus 1', 'TouchOSC']
2025-06-30 23:25:16,485 - INFO - MIDI output connected to IAC: IAC Driver Bus 1
2025-06-30 23:25:16,485 - INFO - Starting WebSocket server on port 8080
2025-06-30 23:25:16,504 - INFO - server listening on 127.0.0.1:8080
2025-06-30 23:25:16,505 - INFO - server listening on [::1]:8080
2025-06-30 23:25:16,505 - INFO - WebSocket server ready on ws://localhost:8080
2025-06-30 23:27:58,972 - INFO - connection open
2025-06-30 23:27:58,973 - INFO - WebSocket client connected
2025-06-30 23:28:02,430 - INFO - Note On: Ch1 Note36 Vel100
2025-06-30 23:28:02,537 - INFO - Note Off: Ch1 Note36
2025-06-30 23:28:02,713 - INFO - Note On: Ch1 Note36 Vel100
2025-06-30 23:28:02,813 - INFO - Note Off: Ch1 Note36
2025-06-30 23:28:03,095 - INFO - Note On: Ch1 Note36 Vel100
2025-06-30 23:28:03,196 - INFO - Note Off: Ch1 Note36
2025-06-30 23:28:03,350 - INFO - Note On: Ch1 Note36 Vel100
2025-06-30 23:28:03,451 - INFO - Note Off: Ch1 Note36
2025-06-30 23:28:03,706 - INFO - Note On: Ch1 Note36 Vel100
2025-06-30 23:28:03,806 - INFO - Note Off: Ch1 Note36
2025-06-30 23:28:04,090 - INFO - Note On: Ch1 Note36 Vel100
2025-06-30 23:28:04,190 - INFO - Note Off: Ch1 Note36
2025-06-30 23:28:04,345 - INFO - Note On: Ch1 Note36 Vel100
2025-06-30 23:28:04,447 - INFO - Note Off: Ch1 Note36
2025-06-30 23:28:04,703 - INFO - Note On: Ch1 Note36 Vel100
2025-06-30 23:28:04,805 - INFO - Note Off: Ch1 Note36
2025-06-30 23:28:05,085 - INFO - Note On: Ch1 Note36 Vel100
2025-06-30 23:28:05,186 - INFO - Note Off: Ch1 Note36
2025-06-30 23:28:05,341 - INFO - Note On: Ch1 Note36 Vel100
2025-06-30 23:28:05,442 - INFO - Note Off: Ch1 Note36
2025-06-30 23:28:05,700 - INFO - Note On: Ch1 Note36 Vel100
2025-06-30 23:28:05,800 - INFO - Note Off: Ch1 Note36
2025-06-30 23:28:06,085 - INFO - Note On: Ch1 Note36 Vel100
2025-06-30 23:28:06,185 - INFO - Note Off: Ch1 Note36
2025-06-30 23:28:06,341 - INFO - Note On: Ch1 Note36 Vel100
2025-06-30 23:28:06,441 - INFO - Note Off: Ch1 Note36
2025-06-30 23:28:06,699 - INFO - Note On: Ch1 Note36 Vel100
2025-06-30 23:28:06,800 - INFO - Note Off: Ch1 Note36
2025-06-30 23:28:07,084 - INFO - Note On: Ch1 Note36 Vel100
2025-06-30 23:28:07,185 - INFO - Note Off: Ch1 Note36
2025-06-30 23:28:07,340 - INFO - Note On: Ch1 Note36 Vel100
2025-06-30 23:28:07,440 - INFO - Note Off: Ch1 Note36
2025-06-30 23:28:07,723 - INFO - Note On: Ch1 Note36 Vel100
2025-06-30 23:28:07,823 - INFO - Note Off: Ch1 Note36
2025-06-30 23:28:08,080 - INFO - Note On: Ch1 Note36 Vel100
2025-06-30 23:28:08,181 - INFO - Note Off: Ch1 Note36
2025-06-30 23:28:08,335 - INFO - Note On: Ch1 Note36 Vel100
2025-06-30 23:28:08,436 - INFO - Note Off: Ch1 Note36
2025-06-30 23:28:08,720 - INFO - Note On: Ch1 Note36 Vel100
2025-06-30 23:28:08,821 - INFO - Note Off: Ch1 Note36
2025-06-30 23:28:09,081 - INFO - Note On: Ch1 Note36 Vel100
2025-06-30 23:28:09,181 - INFO - Note Off: Ch1 Note36
2025-06-30 23:28:09,337 - INFO - Note On: Ch1 Note36 Vel100
2025-06-30 23:28:09,437 - INFO - Note Off: Ch1 Note36
2025-06-30 23:28:09,718 - INFO - Note On: Ch1 Note36 Vel100
2025-06-30 23:28:09,819 - INFO - Note Off: Ch1 Note36
2025-06-30 23:28:10,076 - INFO - Note On: Ch1 Note36 Vel100
2025-06-30 23:28:10,176 - INFO - Note Off: Ch1 Note36
2025-06-30 23:28:10,332 - INFO - Note On: Ch1 Note36 Vel100
2025-06-30 23:28:10,433 - INFO - Note Off: Ch1 Note36
2025-06-30 23:28:10,716 - INFO - Note On: Ch1 Note36 Vel100
2025-06-30 23:28:10,817 - INFO - Note Off: Ch1 Note36
2025-06-30 23:28:11,099 - INFO - Note On: Ch1 Note36 Vel100
2025-06-30 23:28:11,200 - INFO - Note Off: Ch1 Note36
2025-06-30 23:28:11,328 - INFO - Note On: Ch1 Note36 Vel100
2025-06-30 23:28:11,429 - INFO - Note Off: Ch1 Note36
2025-06-30 23:28:11,711 - INFO - Note On: Ch1 Note36 Vel100
2025-06-30 23:28:11,812 - INFO - Note Off: Ch1 Note36
2025-06-30 23:28:12,094 - INFO - Note On: Ch1 Note36 Vel100
2025-06-30 23:28:12,195 - INFO - Note Off: Ch1 Note36
2025-06-30 23:28:12,349 - INFO - Note On: Ch1 Note36 Vel100
2025-06-30 23:28:12,450 - INFO - Note Off: Ch1 Note36
2025-06-30 23:28:12,704 - INFO - Note On: Ch1 Note36 Vel100
2025-06-30 23:28:12,804 - INFO - Note Off: Ch1 Note36
2025-06-30 23:28:13,087 - INFO - Note On: Ch1 Note36 Vel100
2025-06-30 23:28:13,188 - INFO - Note Off: Ch1 Note36
2025-06-30 23:28:13,343 - INFO - Note On: Ch1 Note36 Vel100
2025-06-30 23:28:13,444 - INFO - Note Off: Ch1 Note36
2025-06-30 23:28:13,703 - INFO - Note On: Ch1 Note36 Vel100
2025-06-30 23:28:13,803 - INFO - Note Off: Ch1 Note36
2025-06-30 23:28:14,088 - INFO - Note On: Ch1 Note36 Vel100
2025-06-30 23:28:14,188 - INFO - Note Off: Ch1 Note36
2025-06-30 23:28:14,342 - INFO - Note On: Ch1 Note36 Vel100
2025-06-30 23:28:14,443 - INFO - Note Off: Ch1 Note36
2025-06-30 23:28:14,726 - INFO - Note On: Ch1 Note36 Vel100
2025-06-30 23:28:14,827 - INFO - Note Off: Ch1 Note36
2025-06-30 23:28:15,084 - INFO - Note On: Ch1 Note36 Vel100
2025-06-30 23:28:15,184 - INFO - Note Off: Ch1 Note36
2025-06-30 23:28:15,340 - INFO - Note On: Ch1 Note36 Vel100
2025-06-30 23:28:15,440 - INFO - Note Off: Ch1 Note36
2025-06-30 23:28:15,722 - INFO - Note On: Ch1 Note36 Vel100
2025-06-30 23:28:15,823 - INFO - Note Off: Ch1 Note36
2025-06-30 23:28:16,081 - INFO - Note On: Ch1 Note36 Vel100
2025-06-30 23:28:16,181 - INFO - Note Off: Ch1 Note36
2025-06-30 23:28:16,335 - INFO - Note On: Ch1 Note36 Vel100
2025-06-30 23:28:16,436 - INFO - Note Off: Ch1 Note36
2025-06-30 23:28:16,720 - INFO - Note On: Ch1 Note36 Vel100
2025-06-30 23:28:16,821 - INFO - Note Off: Ch1 Note36
2025-06-30 23:28:17,079 - INFO - Note On: Ch1 Note36 Vel100
2025-06-30 23:28:17,179 - INFO - Note Off: Ch1 Note36
2025-06-30 23:28:17,334 - INFO - Note On: Ch1 Note36 Vel100
2025-06-30 23:28:17,435 - INFO - Note Off: Ch1 Note36
2025-06-30 23:28:17,717 - INFO - Note On: Ch1 Note36 Vel100
2025-06-30 23:28:17,817 - INFO - Note Off: Ch1 Note36
2025-06-30 23:28:18,075 - INFO - Note On: Ch1 Note36 Vel100
2025-06-30 23:28:18,175 - INFO - Note Off: Ch1 Note36
2025-06-30 23:28:18,330 - INFO - Note On: Ch1 Note36 Vel100
2025-06-30 23:28:18,431 - INFO - Note Off: Ch1 Note36
2025-06-30 23:28:18,715 - INFO - Note On: Ch1 Note36 Vel100
2025-06-30 23:28:18,816 - INFO - Note Off: Ch1 Note36
2025-06-30 23:28:19,099 - INFO - Note On: Ch1 Note36 Vel100
2025-06-30 23:28:19,200 - INFO - Note Off: Ch1 Note36
2025-06-30 23:28:19,329 - INFO - Note On: Ch1 Note36 Vel100
2025-06-30 23:28:19,429 - INFO - Note Off: Ch1 Note36
2025-06-30 23:28:19,714 - INFO - Note On: Ch1 Note36 Vel100
2025-06-30 23:28:19,815 - INFO - Note Off: Ch1 Note36
2025-06-30 23:28:20,098 - INFO - Note On: Ch1 Note36 Vel100
2025-06-30 23:28:20,199 - INFO - Note Off: Ch1 Note36
2025-06-30 23:28:20,352 - INFO - Note On: Ch1 Note36 Vel100
2025-06-30 23:28:20,453 - INFO - Note Off: Ch1 Note36
2025-06-30 23:28:20,711 - INFO - Note On: Ch1 Note36 Vel100
2025-06-30 23:28:20,812 - INFO - Note Off: Ch1 Note36
2025-06-30 23:28:21,093 - INFO - Note On: Ch1 Note36 Vel100
2025-06-30 23:28:21,194 - INFO - Note Off: Ch1 Note36
2025-06-30 23:28:21,349 - INFO - Note On: Ch1 Note36 Vel100
2025-06-30 23:28:21,450 - INFO - Note Off: Ch1 Note36
2025-06-30 23:28:21,706 - INFO - Note On: Ch1 Note36 Vel100
2025-06-30 23:28:21,806 - INFO - Note Off: Ch1 Note36
2025-06-30 23:28:22,090 - INFO - Note On: Ch1 Note36 Vel100
2025-06-30 23:28:22,191 - INFO - Note Off: Ch1 Note36
2025-06-30 23:28:22,347 - INFO - Note On: Ch1 Note36 Vel100
2025-06-30 23:28:22,447 - INFO - Note Off: Ch1 Note36
2025-06-30 23:28:22,704 - INFO - Note On: Ch1 Note36 Vel100
2025-06-30 23:28:22,805 - INFO - Note Off: Ch1 Note36
2025-06-30 23:28:23,087 - INFO - Note On: Ch1 Note36 Vel100
2025-06-30 23:28:23,188 - INFO - Note Off: Ch1 Note36
2025-06-30 23:28:23,343 - INFO - Note On: Ch1 Note36 Vel100
2025-06-30 23:28:23,443 - INFO - Note Off: Ch1 Note36
2025-06-30 23:28:23,702 - INFO - Note On: Ch1 Note36 Vel100
2025-06-30 23:28:23,802 - INFO - Note Off: Ch1 Note36
2025-06-30 23:28:24,083 - INFO - Note On: Ch1 Note36 Vel100
2025-06-30 23:28:24,185 - INFO - Note Off: Ch1 Note36
2025-06-30 23:28:24,341 - INFO - Note On: Ch1 Note36 Vel100
2025-06-30 23:28:24,442 - INFO - Note Off: Ch1 Note36
2025-06-30 23:28:24,700 - INFO - Note On: Ch1 Note36 Vel100
2025-06-30 23:28:24,800 - INFO - Note Off: Ch1 Note36
2025-06-30 23:28:25,083 - INFO - Note On: Ch1 Note36 Vel100
2025-06-30 23:28:25,183 - INFO - Note Off: Ch1 Note36
2025-06-30 23:28:25,338 - INFO - Note On: Ch1 Note36 Vel100
2025-06-30 23:28:25,438 - INFO - Note Off: Ch1 Note36
2025-06-30 23:28:25,723 - INFO - Note On: Ch1 Note36 Vel100
2025-06-30 23:28:25,823 - INFO - Note Off: Ch1 Note36
2025-06-30 23:28:26,081 - INFO - Note On: Ch1 Note36 Vel100
2025-06-30 23:28:26,181 - INFO - Note Off: Ch1 Note36
2025-06-30 23:28:26,336 - INFO - Note On: Ch1 Note36 Vel100
2025-06-30 23:28:26,438 - INFO - Note Off: Ch1 Note36
2025-06-30 23:28:26,720 - INFO - Note On: Ch1 Note36 Vel100
2025-06-30 23:28:26,821 - INFO - Note Off: Ch1 Note36
2025-06-30 23:28:27,078 - INFO - Note On: Ch1 Note36 Vel100
2025-06-30 23:28:27,178 - INFO - Note Off: Ch1 Note36
2025-06-30 23:28:27,332 - INFO - Note On: Ch1 Note36 Vel100
2025-06-30 23:28:27,434 - INFO - Note Off: Ch1 Note36
2025-06-30 23:28:27,716 - INFO - Note On: Ch1 Note36 Vel100
2025-06-30 23:28:27,817 - INFO - Note Off: Ch1 Note36
2025-06-30 23:28:28,100 - INFO - Note On: Ch1 Note36 Vel100
2025-06-30 23:28:28,201 - INFO - Note Off: Ch1 Note36
2025-06-30 23:28:28,331 - INFO - Note On: Ch1 Note36 Vel100
2025-06-30 23:28:28,432 - INFO - Note Off: Ch1 Note36
2025-06-30 23:28:28,715 - INFO - Note On: Ch1 Note36 Vel100
2025-06-30 23:28:28,816 - INFO - Note Off: Ch1 Note36
2025-06-30 23:28:29,100 - INFO - Note On: Ch1 Note36 Vel100
2025-06-30 23:28:29,200 - INFO - Note Off: Ch1 Note36
2025-06-30 23:28:29,331 - INFO - Note On: Ch1 Note36 Vel100
2025-06-30 23:28:29,432 - INFO - Note Off: Ch1 Note36
2025-06-30 23:28:29,714 - INFO - Note On: Ch1 Note36 Vel100
2025-06-30 23:28:29,814 - INFO - Note Off: Ch1 Note36
2025-06-30 23:28:30,097 - INFO - Note On: Ch1 Note36 Vel100
2025-06-30 23:28:30,198 - INFO - Note Off: Ch1 Note36
2025-06-30 23:28:30,326 - INFO - Note On: Ch1 Note36 Vel100
2025-06-30 23:28:30,427 - INFO - Note Off: Ch1 Note36
2025-06-30 23:28:30,709 - INFO - Note On: Ch1 Note36 Vel100
2025-06-30 23:28:30,809 - INFO - Note Off: Ch1 Note36
2025-06-30 23:28:31,094 - INFO - Note On: Ch1 Note36 Vel100
2025-06-30 23:28:31,195 - INFO - Note Off: Ch1 Note36
2025-06-30 23:28:31,324 - INFO - Note On: Ch1 Note36 Vel100
2025-06-30 23:28:31,424 - INFO - Note Off: Ch1 Note36
2025-06-30 23:28:31,710 - INFO - Note On: Ch1 Note36 Vel100
2025-06-30 23:28:31,811 - INFO - Note Off: Ch1 Note36
2025-06-30 23:28:32,093 - INFO - Note On: Ch1 Note36 Vel100
2025-06-30 23:28:32,193 - INFO - Note Off: Ch1 Note36
2025-06-30 23:28:32,350 - INFO - Note On: Ch1 Note36 Vel100
2025-06-30 23:28:32,450 - INFO - Note Off: Ch1 Note36
2025-06-30 23:28:32,708 - INFO - Note On: Ch1 Note36 Vel100
2025-06-30 23:28:32,808 - INFO - Note Off: Ch1 Note36
2025-06-30 23:28:33,090 - INFO - Note On: Ch1 Note36 Vel100
2025-06-30 23:28:33,190 - INFO - Note Off: Ch1 Note36
2025-06-30 23:28:33,344 - INFO - Note On: Ch1 Note36 Vel100
2025-06-30 23:28:33,445 - INFO - Note Off: Ch1 Note36
2025-06-30 23:28:33,702 - INFO - Note On: Ch1 Note36 Vel100
2025-06-30 23:28:33,802 - INFO - Note Off: Ch1 Note36
2025-06-30 23:28:34,087 - INFO - Note On: Ch1 Note36 Vel100
2025-06-30 23:28:34,188 - INFO - Note Off: Ch1 Note36
2025-06-30 23:28:34,343 - INFO - Note On: Ch1 Note36 Vel100
2025-06-30 23:28:34,444 - INFO - Note Off: Ch1 Note36
2025-06-30 23:28:34,700 - INFO - Note On: Ch1 Note36 Vel100
2025-06-30 23:28:34,801 - INFO - Note Off: Ch1 Note36
2025-06-30 23:28:35,083 - INFO - Note On: Ch1 Note36 Vel100
2025-06-30 23:28:35,184 - INFO - Note Off: Ch1 Note36
2025-06-30 23:28:35,339 - INFO - Note On: Ch1 Note36 Vel100
2025-06-30 23:28:35,439 - INFO - Note Off: Ch1 Note36
2025-06-30 23:28:35,724 - INFO - Note On: Ch1 Note36 Vel100
2025-06-30 23:28:35,824 - INFO - Note Off: Ch1 Note36
2025-06-30 23:28:36,082 - INFO - Note On: Ch1 Note36 Vel100
2025-06-30 23:28:36,183 - INFO - Note Off: Ch1 Note36
2025-06-30 23:28:36,338 - INFO - Note On: Ch1 Note36 Vel100
2025-06-30 23:28:36,438 - INFO - Note Off: Ch1 Note36
2025-06-30 23:28:36,720 - INFO - Note On: Ch1 Note36 Vel100
2025-06-30 23:28:36,821 - INFO - Note Off: Ch1 Note36
2025-06-30 23:28:37,080 - INFO - Note On: Ch1 Note36 Vel100
2025-06-30 23:28:37,181 - INFO - Note Off: Ch1 Note36
2025-06-30 23:28:37,335 - INFO - Note On: Ch1 Note36 Vel100
2025-06-30 23:28:37,436 - INFO - Note Off: Ch1 Note36
2025-06-30 23:28:37,722 - INFO - Note On: Ch1 Note36 Vel100
2025-06-30 23:28:37,822 - INFO - Note Off: Ch1 Note36
2025-06-30 23:28:38,080 - INFO - Note On: Ch1 Note36 Vel100
2025-06-30 23:28:38,181 - INFO - Note Off: Ch1 Note36
2025-06-30 23:28:38,336 - INFO - Note On: Ch1 Note36 Vel100
2025-06-30 23:28:38,437 - INFO - Note Off: Ch1 Note36
2025-06-30 23:28:38,722 - INFO - Note On: Ch1 Note36 Vel100
2025-06-30 23:28:38,821 - INFO - Note Off: Ch1 Note36
2025-06-30 23:28:39,079 - INFO - Note On: Ch1 Note36 Vel100
2025-06-30 23:28:39,180 - INFO - Note Off: Ch1 Note36
2025-06-30 23:28:39,335 - INFO - Note On: Ch1 Note36 Vel100
2025-06-30 23:28:39,436 - INFO - Note Off: Ch1 Note36
2025-06-30 23:28:39,718 - INFO - Note On: Ch1 Note36 Vel100
2025-06-30 23:28:39,819 - INFO - Note Off: Ch1 Note36
2025-06-30 23:28:40,078 - INFO - Note On: Ch1 Note36 Vel100
2025-06-30 23:28:40,178 - INFO - Note Off: Ch1 Note36
2025-06-30 23:28:40,332 - INFO - Note On: Ch1 Note36 Vel100
2025-06-30 23:28:40,433 - INFO - Note Off: Ch1 Note36
2025-06-30 23:28:40,716 - INFO - Note On: Ch1 Note36 Vel100
2025-06-30 23:28:40,817 - INFO - Note Off: Ch1 Note36
2025-06-30 23:28:41,100 - INFO - Note On: Ch1 Note36 Vel100
2025-06-30 23:28:41,201 - INFO - Note Off: Ch1 Note36
2025-06-30 23:28:41,330 - INFO - Note On: Ch1 Note36 Vel100
2025-06-30 23:28:41,431 - INFO - Note Off: Ch1 Note36
2025-06-30 23:28:41,713 - INFO - Note On: Ch1 Note36 Vel100
2025-06-30 23:28:41,814 - INFO - Note Off: Ch1 Note36
2025-06-30 23:28:42,097 - INFO - Note On: Ch1 Note36 Vel100
2025-06-30 23:28:42,198 - INFO - Note Off: Ch1 Note36
2025-06-30 23:28:42,327 - INFO - Note On: Ch1 Note36 Vel100
2025-06-30 23:28:42,427 - INFO - Note Off: Ch1 Note36
2025-06-30 23:28:42,709 - INFO - Note On: Ch1 Note36 Vel100
2025-06-30 23:28:42,810 - INFO - Note Off: Ch1 Note36
2025-06-30 23:28:43,093 - INFO - Note On: Ch1 Note36 Vel100
2025-06-30 23:28:43,194 - INFO - Note Off: Ch1 Note36
2025-06-30 23:28:43,350 - INFO - Note On: Ch1 Note36 Vel100
2025-06-30 23:28:43,451 - INFO - Note Off: Ch1 Note36
2025-06-30 23:28:43,709 - INFO - Note On: Ch1 Note36 Vel100
2025-06-30 23:28:43,810 - INFO - Note Off: Ch1 Note36
2025-06-30 23:28:44,094 - INFO - Note On: Ch1 Note36 Vel100
2025-06-30 23:28:44,194 - INFO - Note Off: Ch1 Note36
2025-06-30 23:28:44,348 - INFO - Note On: Ch1 Note36 Vel100
2025-06-30 23:28:44,450 - INFO - Note Off: Ch1 Note36
2025-06-30 23:28:44,705 - INFO - Note On: Ch1 Note36 Vel100
2025-06-30 23:28:44,806 - INFO - Note Off: Ch1 Note36
2025-06-30 23:28:45,090 - INFO - Note On: Ch1 Note36 Vel100
2025-06-30 23:28:45,191 - INFO - Note Off: Ch1 Note36
2025-06-30 23:28:45,346 - INFO - Note On: Ch1 Note36 Vel100
2025-06-30 23:28:45,447 - INFO - Note Off: Ch1 Note36
2025-06-30 23:28:45,703 - INFO - Note On: Ch1 Note36 Vel100
2025-06-30 23:28:45,804 - INFO - Note Off: Ch1 Note36
2025-06-30 23:28:46,087 - INFO - Note On: Ch1 Note36 Vel100
2025-06-30 23:28:46,188 - INFO - Note Off: Ch1 Note36
2025-06-30 23:28:46,343 - INFO - Note On: Ch1 Note36 Vel100
2025-06-30 23:28:46,443 - INFO - Note Off: Ch1 Note36
2025-06-30 23:28:46,700 - INFO - Note On: Ch1 Note36 Vel100
2025-06-30 23:28:46,801 - INFO - Note Off: Ch1 Note36
2025-06-30 23:28:47,086 - INFO - Note On: Ch1 Note36 Vel100
2025-06-30 23:28:47,187 - INFO - Note Off: Ch1 Note36
2025-06-30 23:28:47,344 - INFO - Note On: Ch1 Note36 Vel100
2025-06-30 23:28:47,445 - INFO - Note Off: Ch1 Note36
2025-06-30 23:28:47,701 - INFO - Note On: Ch1 Note36 Vel100
2025-06-30 23:28:47,802 - INFO - Note Off: Ch1 Note36
2025-06-30 23:28:48,086 - INFO - Note On: Ch1 Note36 Vel100
2025-06-30 23:28:48,187 - INFO - Note Off: Ch1 Note36
2025-06-30 23:28:48,341 - INFO - Note On: Ch1 Note36 Vel100
2025-06-30 23:28:48,442 - INFO - Note Off: Ch1 Note36
2025-06-30 23:28:48,726 - INFO - Note On: Ch1 Note36 Vel100
2025-06-30 23:28:48,826 - INFO - Note Off: Ch1 Note36
2025-06-30 23:28:49,083 - INFO - Note On: Ch1 Note36 Vel100
2025-06-30 23:28:49,184 - INFO - Note Off: Ch1 Note36
2025-06-30 23:28:49,340 - INFO - Note On: Ch1 Note36 Vel100
2025-06-30 23:28:49,440 - INFO - Note Off: Ch1 Note36
2025-06-30 23:28:49,723 - INFO - Note On: Ch1 Note36 Vel100
2025-06-30 23:28:49,823 - INFO - Note Off: Ch1 Note36
2025-06-30 23:29:06,523 - INFO - Note On: Ch1 Note36 Vel100
2025-06-30 23:29:06,622 - INFO - Note Off: Ch1 Note36
2025-06-30 23:29:06,803 - INFO - Note On: Ch1 Note36 Vel100
2025-06-30 23:29:06,904 - INFO - Note Off: Ch1 Note36
2025-06-30 23:29:07,186 - INFO - Note On: Ch1 Note36 Vel100
2025-06-30 23:29:07,287 - INFO - Note Off: Ch1 Note36
2025-06-30 23:29:07,442 - INFO - Note On: Ch1 Note36 Vel100
2025-06-30 23:29:07,543 - INFO - Note Off: Ch1 Note36
2025-06-30 23:29:07,800 - INFO - Note On: Ch1 Note36 Vel100
2025-06-30 23:29:07,899 - INFO - Note Off: Ch1 Note36
2025-06-30 23:29:08,182 - INFO - Note On: Ch1 Note36 Vel100
2025-06-30 23:29:08,283 - INFO - Note Off: Ch1 Note36
2025-06-30 23:29:08,437 - INFO - Note On: Ch1 Note36 Vel100
2025-06-30 23:29:08,537 - INFO - Note Off: Ch1 Note36
2025-06-30 23:29:08,822 - INFO - Note On: Ch1 Note36 Vel100
2025-06-30 23:29:08,922 - INFO - Note Off: Ch1 Note36
2025-06-30 23:29:09,180 - INFO - Note On: Ch1 Note36 Vel100
2025-06-30 23:29:09,280 - INFO - Note Off: Ch1 Note36
2025-06-30 23:29:09,433 - INFO - Note On: Ch1 Note36 Vel100
2025-06-30 23:29:09,534 - INFO - Note Off: Ch1 Note36
2025-06-30 23:29:09,816 - INFO - Note On: Ch1 Note36 Vel100
2025-06-30 23:29:09,918 - INFO - Note Off: Ch1 Note36
2025-06-30 23:29:10,173 - INFO - Note On: Ch1 Note36 Vel100
2025-06-30 23:29:10,273 - INFO - Note Off: Ch1 Note36
2025-06-30 23:29:10,430 - INFO - Note On: Ch1 Note36 Vel100
2025-06-30 23:29:10,531 - INFO - Note Off: Ch1 Note36
2025-06-30 23:29:10,814 - INFO - Note On: Ch1 Note36 Vel100
2025-06-30 23:29:10,915 - INFO - Note Off: Ch1 Note36
2025-06-30 23:29:11,198 - INFO - Note On: Ch1 Note36 Vel100
2025-06-30 23:29:11,299 - INFO - Note Off: Ch1 Note36
2025-06-30 23:29:11,428 - INFO - Note On: Ch1 Note36 Vel100
2025-06-30 23:29:11,528 - INFO - Note Off: Ch1 Note36
2025-06-30 23:29:11,810 - INFO - Note On: Ch1 Note36 Vel100
2025-06-30 23:29:11,910 - INFO - Note Off: Ch1 Note36
2025-06-30 23:29:12,194 - INFO - Note On: Ch1 Note36 Vel100
2025-06-30 23:29:12,294 - INFO - Note Off: Ch1 Note36
2025-06-30 23:29:12,448 - INFO - Note On: Ch1 Note36 Vel100
2025-06-30 23:29:12,548 - INFO - Note Off: Ch1 Note36
2025-06-30 23:29:12,805 - INFO - Note On: Ch1 Note36 Vel100
2025-06-30 23:29:12,905 - INFO - Note Off: Ch1 Note36
2025-06-30 23:29:13,189 - INFO - Note On: Ch1 Note36 Vel100
2025-06-30 23:29:13,289 - INFO - Note Off: Ch1 Note36
2025-06-30 23:29:13,445 - INFO - Note On: Ch1 Note36 Vel100
2025-06-30 23:29:13,546 - INFO - Note Off: Ch1 Note36
2025-06-30 23:29:13,804 - INFO - Note On: Ch1 Note36 Vel100
2025-06-30 23:29:13,904 - INFO - Note Off: Ch1 Note36
2025-06-30 23:29:14,189 - INFO - Note On: Ch1 Note36 Vel100
2025-06-30 23:29:14,289 - INFO - Note Off: Ch1 Note36
2025-06-30 23:29:14,444 - INFO - Note On: Ch1 Note36 Vel100
2025-06-30 23:29:14,545 - INFO - Note Off: Ch1 Note36
2025-06-30 23:29:14,801 - INFO - Note On: Ch1 Note36 Vel100
2025-06-30 23:29:14,901 - INFO - Note Off: Ch1 Note36
2025-06-30 23:29:15,186 - INFO - Note On: Ch1 Note36 Vel100
2025-06-30 23:29:15,287 - INFO - Note Off: Ch1 Note36
2025-06-30 23:29:15,442 - INFO - Note On: Ch1 Note36 Vel100
2025-06-30 23:29:15,543 - INFO - Note Off: Ch1 Note36
2025-06-30 23:29:15,800 - INFO - Note On: Ch1 Note36 Vel100
2025-06-30 23:29:15,900 - INFO - Note Off: Ch1 Note36
2025-06-30 23:29:16,183 - INFO - Note On: Ch1 Note36 Vel100
2025-06-30 23:29:16,284 - INFO - Note Off: Ch1 Note36
2025-06-30 23:29:16,438 - INFO - Note On: Ch1 Note36 Vel100
2025-06-30 23:29:16,538 - INFO - Note Off: Ch1 Note36
2025-06-30 23:29:16,822 - INFO - Note On: Ch1 Note36 Vel100
2025-06-30 23:29:16,922 - INFO - Note Off: Ch1 Note36
2025-06-30 23:29:17,180 - INFO - Note On: Ch1 Note36 Vel100
2025-06-30 23:29:17,281 - INFO - Note Off: Ch1 Note36
2025-06-30 23:29:17,436 - INFO - Note On: Ch1 Note36 Vel100
2025-06-30 23:29:17,538 - INFO - Note Off: Ch1 Note36
2025-06-30 23:29:17,821 - INFO - Note On: Ch1 Note36 Vel100
2025-06-30 23:29:17,921 - INFO - Note Off: Ch1 Note36
2025-06-30 23:29:18,177 - INFO - Note On: Ch1 Note36 Vel100
2025-06-30 23:29:18,277 - INFO - Note Off: Ch1 Note36
2025-06-30 23:29:18,433 - INFO - Note On: Ch1 Note36 Vel100
2025-06-30 23:29:18,534 - INFO - Note Off: Ch1 Note36
2025-06-30 23:29:18,818 - INFO - Note On: Ch1 Note36 Vel100
2025-06-30 23:29:18,918 - INFO - Note Off: Ch1 Note36
2025-06-30 23:29:19,177 - INFO - Note On: Ch1 Note36 Vel100
2025-06-30 23:29:19,278 - INFO - Note Off: Ch1 Note36
2025-06-30 23:29:19,433 - INFO - Note On: Ch1 Note36 Vel100
2025-06-30 23:29:19,534 - INFO - Note Off: Ch1 Note36
2025-06-30 23:29:19,818 - INFO - Note On: Ch1 Note36 Vel100
2025-06-30 23:29:19,918 - INFO - Note Off: Ch1 Note36
2025-06-30 23:29:20,176 - INFO - Note On: Ch1 Note36 Vel100
2025-06-30 23:29:20,276 - INFO - Note Off: Ch1 Note36
2025-06-30 23:29:20,432 - INFO - Note On: Ch1 Note36 Vel100
2025-06-30 23:29:20,533 - INFO - Note Off: Ch1 Note36
2025-06-30 23:29:20,816 - INFO - Note On: Ch1 Note36 Vel100
2025-06-30 23:29:20,916 - INFO - Note Off: Ch1 Note36
2025-06-30 23:29:21,174 - INFO - Note On: Ch1 Note36 Vel100
2025-06-30 23:29:21,274 - INFO - Note Off: Ch1 Note36
2025-06-30 23:29:21,430 - INFO - Note On: Ch1 Note36 Vel100
2025-06-30 23:29:21,530 - INFO - Note Off: Ch1 Note36
2025-06-30 23:29:21,813 - INFO - Note On: Ch1 Note36 Vel100
2025-06-30 23:29:21,913 - INFO - Note Off: Ch1 Note36
2025-06-30 23:29:22,195 - INFO - Note On: Ch1 Note36 Vel100
2025-06-30 23:29:22,295 - INFO - Note Off: Ch1 Note36
2025-06-30 23:29:22,449 - INFO - Note On: Ch1 Note36 Vel100
2025-06-30 23:29:22,549 - INFO - Note Off: Ch1 Note36
2025-06-30 23:29:22,805 - INFO - Note On: Ch1 Note36 Vel100
2025-06-30 23:29:22,906 - INFO - Note Off: Ch1 Note36
2025-06-30 23:29:23,190 - INFO - Note On: Ch1 Note36 Vel100
2025-06-30 23:29:23,290 - INFO - Note Off: Ch1 Note36
2025-06-30 23:29:23,447 - INFO - Note On: Ch1 Note36 Vel100
2025-06-30 23:29:23,547 - INFO - Note Off: Ch1 Note36
2025-06-30 23:29:23,804 - INFO - Note On: Ch1 Note36 Vel100
2025-06-30 23:29:23,904 - INFO - Note Off: Ch1 Note36
2025-06-30 23:29:24,188 - INFO - Note On: Ch1 Note36 Vel100
2025-06-30 23:29:24,288 - INFO - Note Off: Ch1 Note36
2025-06-30 23:29:24,445 - INFO - Note On: Ch1 Note36 Vel100
2025-06-30 23:29:24,544 - INFO - Note Off: Ch1 Note36
2025-06-30 23:29:24,802 - INFO - Note On: Ch1 Note36 Vel100
2025-06-30 23:29:24,903 - INFO - Note Off: Ch1 Note36
2025-06-30 23:29:25,186 - INFO - Note On: Ch1 Note36 Vel100
2025-06-30 23:29:25,287 - INFO - Note Off: Ch1 Note36
2025-06-30 23:29:25,441 - INFO - Note On: Ch1 Note36 Vel100
2025-06-30 23:29:25,542 - INFO - Note Off: Ch1 Note36
2025-06-30 23:29:25,799 - INFO - Note On: Ch1 Note36 Vel100
2025-06-30 23:29:25,899 - INFO - Note Off: Ch1 Note36
2025-06-30 23:29:26,182 - INFO - Note On: Ch1 Note36 Vel100
2025-06-30 23:29:26,283 - INFO - Note Off: Ch1 Note36
2025-06-30 23:29:26,439 - INFO - Note On: Ch1 Note36 Vel100
2025-06-30 23:29:26,539 - INFO - Note Off: Ch1 Note36
2025-06-30 23:29:26,823 - INFO - Note On: Ch1 Note36 Vel100
2025-06-30 23:29:26,923 - INFO - Note Off: Ch1 Note36
2025-06-30 23:29:27,182 - INFO - Note On: Ch1 Note36 Vel100
2025-06-30 23:29:27,282 - INFO - Note Off: Ch1 Note36
2025-06-30 23:29:27,438 - INFO - Note On: Ch1 Note36 Vel100
2025-06-30 23:29:27,538 - INFO - Note Off: Ch1 Note36
2025-06-30 23:29:27,822 - INFO - Note On: Ch1 Note36 Vel100
2025-06-30 23:29:27,923 - INFO - Note Off: Ch1 Note36
2025-06-30 23:29:28,178 - INFO - Note On: Ch1 Note36 Vel100
2025-06-30 23:29:28,279 - INFO - Note Off: Ch1 Note36
2025-06-30 23:29:28,434 - INFO - Note On: Ch1 Note36 Vel100
2025-06-30 23:29:28,535 - INFO - Note Off: Ch1 Note36
2025-06-30 23:29:28,818 - INFO - Note On: Ch1 Note36 Vel100
2025-06-30 23:29:28,920 - INFO - Note Off: Ch1 Note36
2025-06-30 23:29:29,178 - INFO - Note On: Ch1 Note36 Vel100
2025-06-30 23:29:29,280 - INFO - Note Off: Ch1 Note36
2025-06-30 23:29:29,436 - INFO - Note On: Ch1 Note36 Vel100
2025-06-30 23:29:29,537 - INFO - Note Off: Ch1 Note36
2025-06-30 23:29:29,798 - INFO - Note On: Ch1 Note36 Vel100
2025-06-30 23:29:29,898 - INFO - Note Off: Ch1 Note36
2025-06-30 23:29:30,180 - INFO - Note On: Ch1 Note36 Vel100
2025-06-30 23:29:30,281 - INFO - Note Off: Ch1 Note36
2025-06-30 23:29:30,434 - INFO - Note On: Ch1 Note36 Vel100
2025-06-30 23:29:30,536 - INFO - Note Off: Ch1 Note36
2025-06-30 23:29:30,819 - INFO - Note On: Ch1 Note36 Vel100
2025-06-30 23:29:30,920 - INFO - Note Off: Ch1 Note36
2025-06-30 23:29:31,176 - INFO - Note On: Ch1 Note36 Vel100
2025-06-30 23:29:31,277 - INFO - Note Off: Ch1 Note36
2025-06-30 23:29:31,432 - INFO - Note On: Ch1 Note36 Vel100
2025-06-30 23:29:31,533 - INFO - Note Off: Ch1 Note36
2025-06-30 23:29:31,814 - INFO - Note On: Ch1 Note36 Vel100
2025-06-30 23:29:31,915 - INFO - Note Off: Ch1 Note36
2025-06-30 23:29:32,196 - INFO - Note On: Ch1 Note36 Vel100
2025-06-30 23:29:32,297 - INFO - Note Off: Ch1 Note36
2025-06-30 23:29:32,425 - INFO - Note On: Ch1 Note36 Vel100
2025-06-30 23:29:32,526 - INFO - Note Off: Ch1 Note36
2025-06-30 23:29:32,809 - INFO - Note On: Ch1 Note36 Vel100
2025-06-30 23:29:32,909 - INFO - Note Off: Ch1 Note36
2025-06-30 23:29:33,192 - INFO - Note On: Ch1 Note36 Vel100
2025-06-30 23:29:33,293 - INFO - Note Off: Ch1 Note36
2025-06-30 23:29:33,422 - INFO - Note On: Ch1 Note36 Vel100
2025-06-30 23:29:33,522 - INFO - Note Off: Ch1 Note36
2025-06-30 23:29:33,806 - INFO - Note On: Ch1 Note36 Vel100
2025-06-30 23:29:33,907 - INFO - Note Off: Ch1 Note36
2025-06-30 23:29:34,189 - INFO - Note On: Ch1 Note36 Vel100
2025-06-30 23:29:34,289 - INFO - Note Off: Ch1 Note36
2025-06-30 23:29:34,447 - INFO - Note On: Ch1 Note36 Vel100
2025-06-30 23:29:34,548 - INFO - Note Off: Ch1 Note36
2025-06-30 23:29:34,804 - INFO - Note On: Ch1 Note36 Vel100
2025-06-30 23:29:34,904 - INFO - Note Off: Ch1 Note36
2025-06-30 23:29:35,187 - INFO - Note On: Ch1 Note36 Vel100
2025-06-30 23:29:35,287 - INFO - Note Off: Ch1 Note36
2025-06-30 23:29:35,444 - INFO - Note On: Ch1 Note36 Vel100
2025-06-30 23:29:35,545 - INFO - Note Off: Ch1 Note36
2025-06-30 23:29:35,801 - INFO - Note On: Ch1 Note36 Vel100
2025-06-30 23:29:35,902 - INFO - Note Off: Ch1 Note36
2025-06-30 23:29:36,184 - INFO - Note On: Ch1 Note36 Vel100
2025-06-30 23:29:36,285 - INFO - Note Off: Ch1 Note36
2025-06-30 23:29:36,439 - INFO - Note On: Ch1 Note36 Vel100
2025-06-30 23:29:36,540 - INFO - Note Off: Ch1 Note36
2025-06-30 23:29:36,799 - INFO - Note On: Ch1 Note36 Vel100
2025-06-30 23:29:36,899 - INFO - Note Off: Ch1 Note36
2025-06-30 23:29:37,183 - INFO - Note On: Ch1 Note36 Vel100
2025-06-30 23:29:37,284 - INFO - Note Off: Ch1 Note36
2025-06-30 23:29:37,438 - INFO - Note On: Ch1 Note36 Vel100
2025-06-30 23:29:37,538 - INFO - Note Off: Ch1 Note36
2025-06-30 23:29:37,798 - INFO - Note On: Ch1 Note36 Vel100
2025-06-30 23:29:37,899 - INFO - Note Off: Ch1 Note36
2025-06-30 23:29:38,183 - INFO - Note On: Ch1 Note36 Vel100
2025-06-30 23:29:38,284 - INFO - Note Off: Ch1 Note36
2025-06-30 23:29:38,438 - INFO - Note On: Ch1 Note36 Vel100
2025-06-30 23:29:38,538 - INFO - Note Off: Ch1 Note36
2025-06-30 23:29:38,797 - INFO - Note On: Ch1 Note36 Vel100
2025-06-30 23:29:38,897 - INFO - Note Off: Ch1 Note36
2025-06-30 23:29:39,179 - INFO - Note On: Ch1 Note36 Vel100
2025-06-30 23:29:39,281 - INFO - Note Off: Ch1 Note36
2025-06-30 23:29:39,435 - INFO - Note On: Ch1 Note36 Vel100
2025-06-30 23:29:39,538 - INFO - Note Off: Ch1 Note36
2025-06-30 23:29:39,824 - INFO - Note On: Ch1 Note36 Vel100
2025-06-30 23:29:39,924 - INFO - Note Off: Ch1 Note36
2025-06-30 23:29:40,183 - INFO - Note On: Ch1 Note36 Vel100
2025-06-30 23:29:40,284 - INFO - Note Off: Ch1 Note36
2025-06-30 23:29:40,438 - INFO - Note On: Ch1 Note36 Vel100
2025-06-30 23:29:40,538 - INFO - Note Off: Ch1 Note36
2025-06-30 23:29:40,821 - INFO - Note On: Ch1 Note36 Vel100
2025-06-30 23:29:40,922 - INFO - Note Off: Ch1 Note36
2025-06-30 23:29:41,180 - INFO - Note On: Ch1 Note36 Vel100
2025-06-30 23:29:41,280 - INFO - Note Off: Ch1 Note36
2025-06-30 23:29:41,437 - INFO - Note On: Ch1 Note36 Vel100
2025-06-30 23:29:41,538 - INFO - Note Off: Ch1 Note36
2025-06-30 23:29:41,827 - INFO - Note On: Ch1 Note36 Vel100
2025-06-30 23:29:41,924 - INFO - Note Off: Ch1 Note36
2025-06-30 23:29:42,184 - INFO - Note On: Ch1 Note36 Vel100
2025-06-30 23:29:42,285 - INFO - Note Off: Ch1 Note36
2025-06-30 23:29:42,443 - INFO - Note On: Ch1 Note36 Vel100
2025-06-30 23:29:42,545 - INFO - Note Off: Ch1 Note36
2025-06-30 23:29:42,802 - INFO - Note On: Ch1 Note36 Vel100
2025-06-30 23:29:42,902 - INFO - Note Off: Ch1 Note36
2025-06-30 23:29:43,185 - INFO - Note On: Ch1 Note36 Vel100
2025-06-30 23:29:43,285 - INFO - Note Off: Ch1 Note36
2025-06-30 23:29:43,441 - INFO - Note On: Ch1 Note36 Vel100
2025-06-30 23:29:43,542 - INFO - Note Off: Ch1 Note36
2025-06-30 23:29:43,799 - INFO - Note On: Ch1 Note36 Vel100
2025-06-30 23:29:43,899 - INFO - Note Off: Ch1 Note36
2025-06-30 23:29:44,185 - INFO - Note On: Ch1 Note36 Vel100
2025-06-30 23:29:44,286 - INFO - Note Off: Ch1 Note36
2025-06-30 23:29:44,443 - INFO - Note On: Ch1 Note36 Vel100
2025-06-30 23:29:44,544 - INFO - Note Off: Ch1 Note36
2025-06-30 23:29:44,800 - INFO - Note On: Ch1 Note36 Vel100
2025-06-30 23:29:44,900 - INFO - Note Off: Ch1 Note36
2025-06-30 23:29:45,188 - INFO - Note On: Ch1 Note36 Vel100
2025-06-30 23:29:45,288 - INFO - Note Off: Ch1 Note36
2025-06-30 23:29:45,447 - INFO - Note On: Ch1 Note36 Vel100
2025-06-30 23:29:45,553 - INFO - Note Off: Ch1 Note36
2025-06-30 23:29:45,811 - INFO - Note On: Ch1 Note36 Vel100
2025-06-30 23:29:45,909 - INFO - Note Off: Ch1 Note36
2025-06-30 23:29:46,194 - INFO - Note On: Ch1 Note36 Vel100
2025-06-30 23:29:46,294 - INFO - Note Off: Ch1 Note36
2025-06-30 23:29:46,423 - INFO - Note On: Ch1 Note36 Vel100
2025-06-30 23:29:46,524 - INFO - Note Off: Ch1 Note36
2025-06-30 23:29:46,816 - INFO - Note On: Ch1 Note36 Vel100
2025-06-30 23:29:46,918 - INFO - Note Off: Ch1 Note36
2025-06-30 23:29:47,176 - INFO - Note On: Ch1 Note36 Vel100
2025-06-30 23:29:47,277 - INFO - Note Off: Ch1 Note36
2025-06-30 23:29:47,436 - INFO - Note On: Ch1 Note36 Vel100
2025-06-30 23:29:47,536 - INFO - Note Off: Ch1 Note36
2025-06-30 23:29:47,800 - INFO - Note On: Ch1 Note36 Vel100
2025-06-30 23:29:47,900 - INFO - Note Off: Ch1 Note36
2025-06-30 23:29:48,188 - INFO - Note On: Ch1 Note36 Vel100
2025-06-30 23:29:48,287 - INFO - Note Off: Ch1 Note36
2025-06-30 23:29:48,445 - INFO - Note On: Ch1 Note36 Vel100
2025-06-30 23:29:48,545 - INFO - Note Off: Ch1 Note36
2025-06-30 23:29:48,807 - INFO - Note On: Ch1 Note36 Vel100
2025-06-30 23:29:48,908 - INFO - Note Off: Ch1 Note36
2025-06-30 23:29:49,192 - INFO - Note On: Ch1 Note36 Vel100
2025-06-30 23:29:49,292 - INFO - Note Off: Ch1 Note36
2025-06-30 23:29:49,423 - INFO - Note On: Ch1 Note36 Vel100
2025-06-30 23:29:49,524 - INFO - Note Off: Ch1 Note36
2025-06-30 23:29:49,808 - INFO - Note On: Ch1 Note36 Vel100
2025-06-30 23:29:49,908 - INFO - Note Off: Ch1 Note36
2025-06-30 23:29:50,192 - INFO - Note On: Ch1 Note36 Vel100
2025-06-30 23:29:50,293 - INFO - Note Off: Ch1 Note36
2025-06-30 23:29:50,424 - INFO - Note On: Ch1 Note36 Vel100
2025-06-30 23:29:50,524 - INFO - Note Off: Ch1 Note36
2025-06-30 23:29:50,808 - INFO - Note On: Ch1 Note36 Vel100
2025-06-30 23:29:50,908 - INFO - Note Off: Ch1 Note36
2025-06-30 23:29:51,192 - INFO - Note On: Ch1 Note36 Vel100
2025-06-30 23:29:51,292 - INFO - Note Off: Ch1 Note36
2025-06-30 23:29:51,447 - INFO - Note On: Ch1 Note36 Vel100
2025-06-30 23:29:51,548 - INFO - Note Off: Ch1 Note36
2025-06-30 23:29:51,803 - INFO - Note On: Ch1 Note36 Vel100
2025-06-30 23:29:51,904 - INFO - Note Off: Ch1 Note36
2025-06-30 23:29:52,187 - INFO - Note On: Ch1 Note36 Vel100
2025-06-30 23:29:52,287 - INFO - Note Off: Ch1 Note36
2025-06-30 23:29:52,442 - INFO - Note On: Ch1 Note36 Vel100
2025-06-30 23:29:52,543 - INFO - Note Off: Ch1 Note36
2025-06-30 23:29:52,799 - INFO - Note On: Ch1 Note36 Vel100
2025-06-30 23:29:52,899 - INFO - Note Off: Ch1 Note36
2025-06-30 23:29:53,184 - INFO - Note On: Ch1 Note36 Vel100
2025-06-30 23:29:53,285 - INFO - Note Off: Ch1 Note36
2025-06-30 23:29:53,441 - INFO - Note On: Ch1 Note36 Vel100
2025-06-30 23:29:53,541 - INFO - Note Off: Ch1 Note36
2025-06-30 23:29:53,800 - INFO - Note On: Ch1 Note36 Vel100
2025-06-30 23:29:53,900 - INFO - Note Off: Ch1 Note36
2025-06-30 23:29:54,187 - INFO - Note On: Ch1 Note36 Vel100
2025-06-30 23:29:54,287 - INFO - Note Off: Ch1 Note36
2025-06-30 23:29:54,443 - INFO - Note On: Ch1 Note36 Vel100
2025-06-30 23:29:54,543 - INFO - Note Off: Ch1 Note36
2025-06-30 23:29:54,802 - INFO - Note On: Ch1 Note36 Vel100
2025-06-30 23:29:54,902 - INFO - Note Off: Ch1 Note36
2025-06-30 23:29:55,186 - INFO - Note On: Ch1 Note36 Vel100
2025-06-30 23:29:55,287 - INFO - Note Off: Ch1 Note36
2025-06-30 23:29:55,442 - INFO - Note On: Ch1 Note36 Vel100
2025-06-30 23:29:55,543 - INFO - Note Off: Ch1 Note36
2025-06-30 23:29:55,800 - INFO - Note On: Ch1 Note36 Vel100
2025-06-30 23:29:55,902 - INFO - Note Off: Ch1 Note36
2025-06-30 23:29:56,182 - INFO - Note On: Ch1 Note36 Vel100
2025-06-30 23:29:56,283 - INFO - Note Off: Ch1 Note36
2025-06-30 23:29:56,438 - INFO - Note On: Ch1 Note36 Vel100
2025-06-30 23:29:56,538 - INFO - Note Off: Ch1 Note36
2025-06-30 23:29:56,822 - INFO - Note On: Ch1 Note36 Vel100
2025-06-30 23:29:56,923 - INFO - Note Off: Ch1 Note36
2025-06-30 23:29:57,181 - INFO - Note On: Ch1 Note36 Vel100
2025-06-30 23:29:57,285 - INFO - Note Off: Ch1 Note36
2025-06-30 23:29:57,439 - INFO - Note On: Ch1 Note36 Vel100
2025-06-30 23:29:57,539 - INFO - Note Off: Ch1 Note36
2025-06-30 23:29:57,797 - INFO - Note On: Ch1 Note36 Vel100
2025-06-30 23:29:57,897 - INFO - Note Off: Ch1 Note36
2025-06-30 23:29:58,183 - INFO - Note On: Ch1 Note36 Vel100
2025-06-30 23:29:58,284 - INFO - Note Off: Ch1 Note36
2025-06-30 23:29:58,439 - INFO - Note On: Ch1 Note36 Vel100
2025-06-30 23:29:58,540 - INFO - Note Off: Ch1 Note36
2025-06-30 23:29:58,797 - INFO - Note On: Ch1 Note36 Vel100
2025-06-30 23:29:58,898 - INFO - Note Off: Ch1 Note36
2025-06-30 23:29:59,184 - INFO - Note On: Ch1 Note36 Vel100
2025-06-30 23:29:59,284 - INFO - Note Off: Ch1 Note36
2025-06-30 23:29:59,438 - INFO - Note On: Ch1 Note36 Vel100
2025-06-30 23:29:59,539 - INFO - Note Off: Ch1 Note36
2025-06-30 23:29:59,818 - INFO - Note On: Ch1 Note36 Vel100
2025-06-30 23:29:59,918 - INFO - Note Off: Ch1 Note36
2025-06-30 23:30:00,179 - INFO - Note On: Ch1 Note36 Vel100
2025-06-30 23:30:00,279 - INFO - Note Off: Ch1 Note36
2025-06-30 23:30:00,436 - INFO - Note On: Ch1 Note36 Vel100
2025-06-30 23:30:00,536 - INFO - Note Off: Ch1 Note36
2025-06-30 23:30:00,820 - INFO - Note On: Ch1 Note36 Vel100
2025-06-30 23:30:00,920 - INFO - Note Off: Ch1 Note36
2025-06-30 23:30:01,180 - INFO - Note On: Ch1 Note36 Vel100
2025-06-30 23:30:01,280 - INFO - Note Off: Ch1 Note36
2025-06-30 23:30:01,437 - INFO - Note On: Ch1 Note36 Vel100
2025-06-30 23:30:01,538 - INFO - Note Off: Ch1 Note36
2025-06-30 23:30:01,797 - INFO - Note On: Ch1 Note36 Vel100
2025-06-30 23:30:01,897 - INFO - Note Off: Ch1 Note36
2025-06-30 23:30:02,185 - INFO - Note On: Ch1 Note36 Vel100
2025-06-30 23:30:02,288 - INFO - Note Off: Ch1 Note36
2025-06-30 23:30:02,444 - INFO - Note On: Ch1 Note36 Vel100
2025-06-30 23:30:02,549 - INFO - Note Off: Ch1 Note36
2025-06-30 23:30:02,803 - INFO - Note On: Ch1 Note36 Vel100
2025-06-30 23:30:02,904 - INFO - Note Off: Ch1 Note36
2025-06-30 23:30:03,194 - INFO - Note On: Ch1 Note36 Vel100
2025-06-30 23:30:03,295 - INFO - Note Off: Ch1 Note36
2025-06-30 23:30:03,427 - INFO - Note On: Ch1 Note36 Vel100
2025-06-30 23:30:03,527 - INFO - Note Off: Ch1 Note36
2025-06-30 23:30:03,817 - INFO - Note On: Ch1 Note36 Vel100
2025-06-30 23:30:03,917 - INFO - Note Off: Ch1 Note36
2025-06-30 23:30:04,184 - INFO - Note On: Ch1 Note36 Vel100
2025-06-30 23:30:04,286 - INFO - Note Off: Ch1 Note36
2025-06-30 23:30:04,442 - INFO - Note On: Ch1 Note36 Vel100
2025-06-30 23:30:04,542 - INFO - Note Off: Ch1 Note36
2025-06-30 23:30:04,806 - INFO - Note On: Ch1 Note36 Vel100
2025-06-30 23:30:04,907 - INFO - Note Off: Ch1 Note36
2025-06-30 23:30:05,196 - INFO - Note On: Ch1 Note36 Vel100
2025-06-30 23:30:05,297 - INFO - Note Off: Ch1 Note36
2025-06-30 23:30:05,427 - INFO - Note On: Ch1 Note36 Vel100
2025-06-30 23:30:05,528 - INFO - Note Off: Ch1 Note36
2025-06-30 23:30:05,816 - INFO - Note On: Ch1 Note36 Vel100
2025-06-30 23:30:05,917 - INFO - Note Off: Ch1 Note36
2025-06-30 23:30:06,176 - INFO - Note On: Ch1 Note36 Vel100
2025-06-30 23:30:06,276 - INFO - Note Off: Ch1 Note36
2025-06-30 23:30:06,439 - INFO - Note On: Ch1 Note36 Vel100
2025-06-30 23:30:06,534 - INFO - Note Off: Ch1 Note36
2025-06-30 23:30:06,824 - INFO - Note On: Ch1 Note36 Vel100
2025-06-30 23:30:06,924 - INFO - Note Off: Ch1 Note36
2025-06-30 23:30:07,186 - INFO - Note On: Ch1 Note36 Vel100
2025-06-30 23:30:07,286 - INFO - Note Off: Ch1 Note36
2025-06-30 23:30:07,441 - INFO - Note On: Ch1 Note36 Vel100
2025-06-30 23:30:07,542 - INFO - Note Off: Ch1 Note36
2025-06-30 23:30:07,804 - INFO - Note On: Ch1 Note36 Vel100
2025-06-30 23:30:07,905 - INFO - Note Off: Ch1 Note36
2025-06-30 23:30:08,191 - INFO - Note On: Ch1 Note36 Vel100
2025-06-30 23:30:08,292 - INFO - Note Off: Ch1 Note36
2025-06-30 23:30:08,424 - INFO - Note On: Ch1 Note36 Vel100
2025-06-30 23:30:08,527 - INFO - Note Off: Ch1 Note36
2025-06-30 23:30:08,812 - INFO - Note On: Ch1 Note36 Vel100
2025-06-30 23:30:08,913 - INFO - Note Off: Ch1 Note36
2025-06-30 23:30:09,171 - INFO - Note On: Ch1 Note36 Vel100
2025-06-30 23:30:09,272 - INFO - Note Off: Ch1 Note36
2025-06-30 23:30:09,431 - INFO - Note On: Ch1 Note36 Vel100
2025-06-30 23:30:09,532 - INFO - Note Off: Ch1 Note36
2025-06-30 23:30:09,819 - INFO - Note On: Ch1 Note36 Vel100
2025-06-30 23:30:09,921 - INFO - Note Off: Ch1 Note36
2025-06-30 23:30:10,180 - INFO - Note On: Ch1 Note36 Vel100
2025-06-30 23:30:10,280 - INFO - Note Off: Ch1 Note36
2025-06-30 23:30:10,439 - INFO - Note On: Ch1 Note36 Vel100
2025-06-30 23:30:10,541 - INFO - Note Off: Ch1 Note36
2025-06-30 23:30:10,801 - INFO - Note On: Ch1 Note36 Vel100
2025-06-30 23:30:10,901 - INFO - Note Off: Ch1 Note36
2025-06-30 23:30:11,188 - INFO - Note On: Ch1 Note36 Vel100
2025-06-30 23:30:11,289 - INFO - Note Off: Ch1 Note36
2025-06-30 23:30:11,448 - INFO - Note On: Ch1 Note36 Vel100
2025-06-30 23:30:11,549 - INFO - Note Off: Ch1 Note36
2025-06-30 23:30:11,807 - INFO - Note On: Ch1 Note36 Vel100
2025-06-30 23:30:11,908 - INFO - Note Off: Ch1 Note36
2025-06-30 23:30:12,198 - INFO - Note On: Ch1 Note36 Vel100
2025-06-30 23:30:12,299 - INFO - Note Off: Ch1 Note36
2025-06-30 23:30:12,427 - INFO - Note On: Ch1 Note36 Vel100
2025-06-30 23:30:12,527 - INFO - Note Off: Ch1 Note36
2025-06-30 23:30:12,812 - INFO - Note On: Ch1 Note36 Vel100
2025-06-30 23:30:12,913 - INFO - Note Off: Ch1 Note36
2025-06-30 23:30:13,198 - INFO - Note On: Ch1 Note36 Vel100
2025-06-30 23:30:13,298 - INFO - Note Off: Ch1 Note36
2025-06-30 23:30:13,434 - INFO - Note On: Ch1 Note36 Vel100
2025-06-30 23:30:13,535 - INFO - Note Off: Ch1 Note36
2025-06-30 23:30:13,819 - INFO - Note On: Ch1 Note36 Vel100
2025-06-30 23:30:13,919 - INFO - Note Off: Ch1 Note36
2025-06-30 23:30:14,177 - INFO - Note On: Ch1 Note36 Vel100
2025-06-30 23:30:14,279 - INFO - Note Off: Ch1 Note36
2025-06-30 23:30:14,435 - INFO - Note On: Ch1 Note36 Vel100
2025-06-30 23:30:14,536 - INFO - Note Off: Ch1 Note36
2025-06-30 23:30:14,799 - INFO - Note On: Ch1 Note36 Vel100
2025-06-30 23:30:14,898 - INFO - Note Off: Ch1 Note36
2025-06-30 23:30:15,184 - INFO - Note On: Ch1 Note36 Vel100
2025-06-30 23:30:15,286 - INFO - Note Off: Ch1 Note36
2025-06-30 23:30:15,445 - INFO - Note On: Ch1 Note36 Vel100
2025-06-30 23:30:15,548 - INFO - Note Off: Ch1 Note36
2025-06-30 23:30:15,802 - INFO - Note On: Ch1 Note36 Vel100
2025-06-30 23:30:15,907 - INFO - Note Off: Ch1 Note36
2025-06-30 23:30:16,190 - INFO - Note On: Ch1 Note36 Vel100
2025-06-30 23:30:16,292 - INFO - Note Off: Ch1 Note36
2025-06-30 23:30:16,423 - INFO - Note On: Ch1 Note36 Vel100
2025-06-30 23:30:16,524 - INFO - Note Off: Ch1 Note36
2025-06-30 23:30:16,814 - INFO - Note On: Ch1 Note36 Vel100
2025-06-30 23:30:16,915 - INFO - Note Off: Ch1 Note36
2025-06-30 23:30:17,177 - INFO - Note On: Ch1 Note36 Vel100
2025-06-30 23:30:17,278 - INFO - Note Off: Ch1 Note36
2025-06-30 23:30:17,433 - INFO - Note On: Ch1 Note36 Vel100
2025-06-30 23:30:17,533 - INFO - Note Off: Ch1 Note36
2025-06-30 23:30:17,818 - INFO - Note On: Ch1 Note36 Vel100
2025-06-30 23:30:17,919 - INFO - Note Off: Ch1 Note36
2025-06-30 23:30:18,182 - INFO - Note On: Ch1 Note36 Vel100
2025-06-30 23:30:18,283 - INFO - Note Off: Ch1 Note36
2025-06-30 23:30:18,441 - INFO - Note On: Ch1 Note36 Vel100
2025-06-30 23:30:18,542 - INFO - Note Off: Ch1 Note36
2025-06-30 23:30:18,802 - INFO - Note On: Ch1 Note36 Vel100
2025-06-30 23:30:18,902 - INFO - Note Off: Ch1 Note36
2025-06-30 23:30:19,190 - INFO - Note On: Ch1 Note36 Vel100
2025-06-30 23:30:19,291 - INFO - Note Off: Ch1 Note36
2025-06-30 23:30:19,423 - INFO - Note On: Ch1 Note36 Vel100
2025-06-30 23:30:19,524 - INFO - Note Off: Ch1 Note36
2025-06-30 23:30:20,619 - INFO - Note On: Ch1 Note36 Vel100
2025-06-30 23:30:20,619 - INFO - Note On: Ch1 Note36 Vel100
2025-06-30 23:30:20,620 - INFO - Note On: Ch1 Note36 Vel100
2025-06-30 23:30:21,619 - INFO - Note Off: Ch1 Note36
2025-06-30 23:30:21,619 - INFO - Note Off: Ch1 Note36
2025-06-30 23:30:21,619 - INFO - Note Off: Ch1 Note36
2025-06-30 23:30:21,620 - INFO - Note On: Ch1 Note36 Vel100
2025-06-30 23:30:21,620 - INFO - Note On: Ch1 Note36 Vel100
2025-06-30 23:30:21,620 - INFO - Note On: Ch1 Note36 Vel100
2025-06-30 23:30:22,619 - INFO - Note Off: Ch1 Note36
2025-06-30 23:30:22,619 - INFO - Note Off: Ch1 Note36
2025-06-30 23:30:22,619 - INFO - Note Off: Ch1 Note36
2025-06-30 23:30:22,620 - INFO - Note On: Ch1 Note36 Vel100
2025-06-30 23:30:22,620 - INFO - Note On: Ch1 Note36 Vel100
2025-06-30 23:30:22,620 - INFO - Note On: Ch1 Note36 Vel100
2025-06-30 23:30:23,619 - INFO - Note Off: Ch1 Note36
2025-06-30 23:30:23,619 - INFO - Note Off: Ch1 Note36
2025-06-30 23:30:23,620 - INFO - Note Off: Ch1 Note36
2025-06-30 23:30:23,620 - INFO - Note On: Ch1 Note36 Vel100
2025-06-30 23:30:23,620 - INFO - Note On: Ch1 Note36 Vel100
2025-06-30 23:30:23,620 - INFO - Note On: Ch1 Note36 Vel100
2025-06-30 23:30:24,619 - INFO - Note Off: Ch1 Note36
2025-06-30 23:30:24,619 - INFO - Note Off: Ch1 Note36
2025-06-30 23:30:24,619 - INFO - Note Off: Ch1 Note36
2025-06-30 23:30:24,619 - INFO - Note On: Ch1 Note36 Vel100
2025-06-30 23:30:24,619 - INFO - Note On: Ch1 Note36 Vel100
2025-06-30 23:30:24,619 - INFO - Note On: Ch1 Note36 Vel100
2025-06-30 23:30:25,619 - INFO - Note Off: Ch1 Note36
2025-06-30 23:30:25,619 - INFO - Note Off: Ch1 Note36
2025-06-30 23:30:25,619 - INFO - Note Off: Ch1 Note36
2025-06-30 23:30:25,619 - INFO - Note On: Ch1 Note36 Vel100
2025-06-30 23:30:25,619 - INFO - Note On: Ch1 Note36 Vel100
2025-06-30 23:30:25,619 - INFO - Note On: Ch1 Note36 Vel100
2025-06-30 23:30:26,618 - INFO - Note Off: Ch1 Note36
2025-06-30 23:30:26,618 - INFO - Note Off: Ch1 Note36
2025-06-30 23:30:26,619 - INFO - Note Off: Ch1 Note36
2025-06-30 23:30:26,619 - INFO - Note On: Ch1 Note36 Vel100
2025-06-30 23:30:26,619 - INFO - Note On: Ch1 Note36 Vel100
2025-06-30 23:30:26,619 - INFO - Note On: Ch1 Note36 Vel100
2025-06-30 23:30:27,619 - INFO - Note Off: Ch1 Note36
2025-06-30 23:30:27,619 - INFO - Note Off: Ch1 Note36
2025-06-30 23:30:27,619 - INFO - Note Off: Ch1 Note36
2025-06-30 23:30:27,619 - INFO - Note On: Ch1 Note36 Vel100
2025-06-30 23:30:27,619 - INFO - Note On: Ch1 Note36 Vel100
2025-06-30 23:30:27,620 - INFO - Note On: Ch1 Note36 Vel100
2025-06-30 23:30:28,618 - INFO - Note Off: Ch1 Note36
2025-06-30 23:30:28,619 - INFO - Note Off: Ch1 Note36
2025-06-30 23:30:28,619 - INFO - Note Off: Ch1 Note36
2025-06-30 23:30:28,619 - INFO - Note On: Ch1 Note36 Vel100
2025-06-30 23:30:28,619 - INFO - Note On: Ch1 Note36 Vel100
2025-06-30 23:30:28,619 - INFO - Note On: Ch1 Note36 Vel100
2025-06-30 23:30:29,618 - INFO - Note Off: Ch1 Note36
2025-06-30 23:30:29,618 - INFO - Note Off: Ch1 Note36
2025-06-30 23:30:29,619 - INFO - Note Off: Ch1 Note36
2025-06-30 23:30:29,619 - INFO - Note On: Ch1 Note36 Vel100
2025-06-30 23:30:29,619 - INFO - Note On: Ch1 Note36 Vel100
2025-06-30 23:30:29,619 - INFO - Note On: Ch1 Note36 Vel100
2025-06-30 23:30:30,619 - INFO - Note Off: Ch1 Note36
2025-06-30 23:30:30,620 - INFO - Note Off: Ch1 Note36
2025-06-30 23:30:30,620 - INFO - Note Off: Ch1 Note36
2025-06-30 23:30:30,620 - INFO - Note On: Ch1 Note36 Vel100
2025-06-30 23:30:30,620 - INFO - Note On: Ch1 Note36 Vel100
2025-06-30 23:30:30,620 - INFO - Note On: Ch1 Note36 Vel100
2025-06-30 23:30:31,619 - INFO - Note Off: Ch1 Note36
2025-06-30 23:30:31,619 - INFO - Note Off: Ch1 Note36
2025-06-30 23:30:31,620 - INFO - Note Off: Ch1 Note36
2025-06-30 23:30:31,620 - INFO - Note On: Ch1 Note36 Vel100
2025-06-30 23:30:31,620 - INFO - Note On: Ch1 Note36 Vel100
2025-06-30 23:30:31,620 - INFO - Note On: Ch1 Note36 Vel100
2025-06-30 23:30:32,619 - INFO - Note Off: Ch1 Note36
2025-06-30 23:30:32,619 - INFO - Note Off: Ch1 Note36
2025-06-30 23:30:32,619 - INFO - Note Off: Ch1 Note36
2025-06-30 23:30:32,619 - INFO - Note On: Ch1 Note36 Vel100
2025-06-30 23:30:32,619 - INFO - Note On: Ch1 Note36 Vel100
2025-06-30 23:30:32,620 - INFO - Note On: Ch1 Note36 Vel100
2025-06-30 23:30:33,619 - INFO - Note Off: Ch1 Note36
2025-06-30 23:30:33,619 - INFO - Note Off: Ch1 Note36
2025-06-30 23:30:33,619 - INFO - Note Off: Ch1 Note36
2025-06-30 23:30:33,620 - INFO - Note On: Ch1 Note36 Vel100
2025-06-30 23:30:33,620 - INFO - Note On: Ch1 Note36 Vel100
2025-06-30 23:30:33,620 - INFO - Note On: Ch1 Note36 Vel100
2025-06-30 23:30:34,619 - INFO - Note Off: Ch1 Note36
2025-06-30 23:30:34,619 - INFO - Note Off: Ch1 Note36
2025-06-30 23:30:34,620 - INFO - Note Off: Ch1 Note36
2025-06-30 23:30:34,620 - INFO - Note On: Ch1 Note36 Vel100
2025-06-30 23:30:34,620 - INFO - Note On: Ch1 Note36 Vel100
2025-06-30 23:30:34,620 - INFO - Note On: Ch1 Note36 Vel100
2025-06-30 23:30:35,621 - INFO - Note Off: Ch1 Note36
2025-06-30 23:30:35,621 - INFO - Note Off: Ch1 Note36
2025-06-30 23:30:35,621 - INFO - Note Off: Ch1 Note36
2025-06-30 23:30:35,621 - INFO - Note On: Ch1 Note36 Vel100
2025-06-30 23:30:35,622 - INFO - Note On: Ch1 Note36 Vel100
2025-06-30 23:30:35,622 - INFO - Note On: Ch1 Note36 Vel100
2025-06-30 23:30:36,618 - INFO - Note Off: Ch1 Note36
2025-06-30 23:30:36,618 - INFO - Note Off: Ch1 Note36
2025-06-30 23:30:36,619 - INFO - Note Off: Ch1 Note36
2025-06-30 23:30:36,619 - INFO - Note On: Ch1 Note36 Vel100
2025-06-30 23:30:36,619 - INFO - Note On: Ch1 Note36 Vel100
2025-06-30 23:30:36,619 - INFO - Note On: Ch1 Note36 Vel100
2025-06-30 23:30:37,619 - INFO - Note Off: Ch1 Note36
2025-06-30 23:30:37,619 - INFO - Note Off: Ch1 Note36
2025-06-30 23:30:37,620 - INFO - Note Off: Ch1 Note36
2025-06-30 23:30:37,620 - INFO - Note On: Ch1 Note36 Vel100
2025-06-30 23:30:37,620 - INFO - Note On: Ch1 Note36 Vel100
2025-06-30 23:30:37,620 - INFO - Note On: Ch1 Note36 Vel100
2025-06-30 23:30:38,620 - INFO - Note Off: Ch1 Note36
2025-06-30 23:30:38,621 - INFO - Note Off: Ch1 Note36
2025-06-30 23:30:38,621 - INFO - Note Off: Ch1 Note36
2025-06-30 23:30:38,621 - INFO - Note On: Ch1 Note36 Vel100
2025-06-30 23:30:38,622 - INFO - Note On: Ch1 Note36 Vel100
2025-06-30 23:30:38,622 - INFO - Note On: Ch1 Note36 Vel100
2025-06-30 23:30:39,620 - INFO - Note Off: Ch1 Note36
2025-06-30 23:30:39,620 - INFO - Note Off: Ch1 Note36
2025-06-30 23:30:39,620 - INFO - Note Off: Ch1 Note36
2025-06-30 23:30:39,620 - INFO - Note On: Ch1 Note36 Vel100
2025-06-30 23:30:39,621 - INFO - Note On: Ch1 Note36 Vel100
2025-06-30 23:30:39,621 - INFO - Note On: Ch1 Note36 Vel100
2025-06-30 23:30:40,620 - INFO - Note Off: Ch1 Note36
2025-06-30 23:30:40,620 - INFO - Note Off: Ch1 Note36
2025-06-30 23:30:40,621 - INFO - Note Off: Ch1 Note36
2025-06-30 23:30:40,621 - INFO - Note On: Ch1 Note36 Vel100
2025-06-30 23:30:40,621 - INFO - Note On: Ch1 Note36 Vel100
2025-06-30 23:30:40,621 - INFO - Note On: Ch1 Note36 Vel100
2025-06-30 23:30:41,619 - INFO - Note Off: Ch1 Note36
2025-06-30 23:30:41,619 - INFO - Note Off: Ch1 Note36
2025-06-30 23:30:41,619 - INFO - Note Off: Ch1 Note36
2025-06-30 23:30:41,619 - INFO - Note On: Ch1 Note36 Vel100
2025-06-30 23:30:41,619 - INFO - Note On: Ch1 Note36 Vel100
2025-06-30 23:30:41,620 - INFO - Note On: Ch1 Note36 Vel100
2025-06-30 23:30:42,619 - INFO - Note Off: Ch1 Note36
2025-06-30 23:30:42,619 - INFO - Note Off: Ch1 Note36
2025-06-30 23:30:42,619 - INFO - Note Off: Ch1 Note36
2025-06-30 23:30:42,619 - INFO - Note On: Ch1 Note36 Vel100
2025-06-30 23:30:42,619 - INFO - Note On: Ch1 Note36 Vel100
2025-06-30 23:30:42,620 - INFO - Note On: Ch1 Note36 Vel100
2025-06-30 23:30:43,620 - INFO - Note Off: Ch1 Note36
2025-06-30 23:30:43,620 - INFO - Note Off: Ch1 Note36
2025-06-30 23:30:43,620 - INFO - Note Off: Ch1 Note36
2025-06-30 23:30:43,620 - INFO - Note On: Ch1 Note36 Vel100
2025-06-30 23:30:43,620 - INFO - Note On: Ch1 Note36 Vel100
2025-06-30 23:30:43,621 - INFO - Note On: Ch1 Note36 Vel100
2025-06-30 23:30:44,620 - INFO - Note Off: Ch1 Note36
2025-06-30 23:30:44,621 - INFO - Note Off: Ch1 Note36
2025-06-30 23:30:44,622 - INFO - Note Off: Ch1 Note36
2025-06-30 23:30:44,623 - INFO - Note On: Ch1 Note36 Vel100
2025-06-30 23:30:44,623 - INFO - Note On: Ch1 Note36 Vel100
2025-06-30 23:30:44,624 - INFO - Note On: Ch1 Note36 Vel100
2025-06-30 23:30:45,619 - INFO - Note Off: Ch1 Note36
2025-06-30 23:30:45,620 - INFO - Note Off: Ch1 Note36
2025-06-30 23:30:45,620 - INFO - Note Off: Ch1 Note36
2025-06-30 23:30:45,620 - INFO - Note On: Ch1 Note36 Vel100
2025-06-30 23:30:45,620 - INFO - Note On: Ch1 Note36 Vel100
2025-06-30 23:30:45,620 - INFO - Note On: Ch1 Note36 Vel100
2025-06-30 23:30:46,619 - INFO - Note Off: Ch1 Note36
2025-06-30 23:30:46,619 - INFO - Note Off: Ch1 Note36
2025-06-30 23:30:46,619 - INFO - Note Off: Ch1 Note36
2025-06-30 23:30:46,619 - INFO - Note On: Ch1 Note36 Vel100
2025-06-30 23:30:46,620 - INFO - Note On: Ch1 Note36 Vel100
2025-06-30 23:30:46,620 - INFO - Note On: Ch1 Note36 Vel100
2025-06-30 23:30:47,619 - INFO - Note Off: Ch1 Note36
2025-06-30 23:30:47,620 - INFO - Note Off: Ch1 Note36
2025-06-30 23:30:47,620 - INFO - Note Off: Ch1 Note36
2025-06-30 23:30:47,620 - INFO - Note On: Ch1 Note36 Vel100
2025-06-30 23:30:47,620 - INFO - Note On: Ch1 Note36 Vel100
2025-06-30 23:30:47,620 - INFO - Note On: Ch1 Note36 Vel100
2025-06-30 23:30:48,619 - INFO - Note Off: Ch1 Note36
2025-06-30 23:30:48,620 - INFO - Note Off: Ch1 Note36
2025-06-30 23:30:48,620 - INFO - Note Off: Ch1 Note36
2025-06-30 23:30:48,620 - INFO - Note On: Ch1 Note36 Vel100
2025-06-30 23:30:48,620 - INFO - Note On: Ch1 Note36 Vel100
2025-06-30 23:30:48,620 - INFO - Note On: Ch1 Note36 Vel100
2025-06-30 23:30:49,619 - INFO - Note Off: Ch1 Note36
2025-06-30 23:30:49,620 - INFO - Note Off: Ch1 Note36
2025-06-30 23:30:49,620 - INFO - Note Off: Ch1 Note36
2025-06-30 23:30:49,621 - INFO - Note On: Ch1 Note36 Vel100
2025-06-30 23:30:49,621 - INFO - Note On: Ch1 Note36 Vel100
2025-06-30 23:30:49,621 - INFO - Note On: Ch1 Note36 Vel100
2025-06-30 23:30:50,620 - INFO - Note Off: Ch1 Note36
2025-06-30 23:30:50,621 - INFO - Note Off: Ch1 Note36
2025-06-30 23:30:50,621 - INFO - Note Off: Ch1 Note36
2025-06-30 23:30:50,621 - INFO - Note On: Ch1 Note36 Vel100
2025-06-30 23:30:50,621 - INFO - Note On: Ch1 Note36 Vel100
2025-06-30 23:30:50,622 - INFO - Note On: Ch1 Note36 Vel100
2025-06-30 23:30:51,620 - INFO - Note Off: Ch1 Note36
2025-06-30 23:30:51,621 - INFO - Note Off: Ch1 Note36
2025-06-30 23:30:51,621 - INFO - Note Off: Ch1 Note36
2025-06-30 23:30:51,622 - INFO - Note On: Ch1 Note36 Vel100
2025-06-30 23:30:51,622 - INFO - Note On: Ch1 Note36 Vel100
2025-06-30 23:30:51,622 - INFO - Note On: Ch1 Note36 Vel100
2025-06-30 23:30:52,621 - INFO - Note Off: Ch1 Note36
2025-06-30 23:30:52,621 - INFO - Note Off: Ch1 Note36
2025-06-30 23:30:52,622 - INFO - Note Off: Ch1 Note36
2025-06-30 23:30:52,622 - INFO - Note On: Ch1 Note36 Vel100
2025-06-30 23:30:52,622 - INFO - Note On: Ch1 Note36 Vel100
2025-06-30 23:30:52,622 - INFO - Note On: Ch1 Note36 Vel100
2025-06-30 23:30:53,620 - INFO - Note Off: Ch1 Note36
2025-06-30 23:30:53,621 - INFO - Note Off: Ch1 Note36
2025-06-30 23:30:53,621 - INFO - Note Off: Ch1 Note36
2025-06-30 23:30:53,621 - INFO - Note On: Ch1 Note36 Vel100
2025-06-30 23:30:53,621 - INFO - Note On: Ch1 Note36 Vel100
2025-06-30 23:30:53,621 - INFO - Note On: Ch1 Note36 Vel100
2025-06-30 23:30:54,619 - INFO - Note Off: Ch1 Note36
2025-06-30 23:30:54,619 - INFO - Note Off: Ch1 Note36
2025-06-30 23:30:54,619 - INFO - Note Off: Ch1 Note36
2025-06-30 23:30:54,619 - INFO - Note On: Ch1 Note36 Vel100
2025-06-30 23:30:54,619 - INFO - Note On: Ch1 Note36 Vel100
2025-06-30 23:30:54,619 - INFO - Note On: Ch1 Note36 Vel100
2025-06-30 23:30:55,620 - INFO - Note Off: Ch1 Note36
2025-06-30 23:30:55,620 - INFO - Note Off: Ch1 Note36
2025-06-30 23:30:55,620 - INFO - Note Off: Ch1 Note36
2025-06-30 23:30:55,620 - INFO - Note On: Ch1 Note36 Vel100
2025-06-30 23:30:55,620 - INFO - Note On: Ch1 Note36 Vel100
2025-06-30 23:30:55,620 - INFO - Note On: Ch1 Note36 Vel100
2025-06-30 23:30:56,621 - INFO - Note Off: Ch1 Note36
2025-06-30 23:30:56,621 - INFO - Note Off: Ch1 Note36
2025-06-30 23:30:56,621 - INFO - Note Off: Ch1 Note36
2025-06-30 23:30:56,621 - INFO - Note On: Ch1 Note36 Vel100
2025-06-30 23:30:56,622 - INFO - Note On: Ch1 Note36 Vel100
2025-06-30 23:30:56,623 - INFO - Note On: Ch1 Note36 Vel100
2025-06-30 23:30:57,621 - INFO - Note Off: Ch1 Note36
2025-06-30 23:30:57,622 - INFO - Note Off: Ch1 Note36
2025-06-30 23:30:57,622 - INFO - Note Off: Ch1 Note36
2025-06-30 23:30:57,622 - INFO - Note On: Ch1 Note36 Vel100
2025-06-30 23:30:57,622 - INFO - Note On: Ch1 Note36 Vel100
2025-06-30 23:30:57,623 - INFO - Note On: Ch1 Note36 Vel100
2025-06-30 23:30:58,620 - INFO - Note Off: Ch1 Note36
2025-06-30 23:30:58,620 - INFO - Note Off: Ch1 Note36
2025-06-30 23:30:58,620 - INFO - Note Off: Ch1 Note36
2025-06-30 23:30:58,621 - INFO - Note On: Ch1 Note36 Vel100
2025-06-30 23:30:58,621 - INFO - Note On: Ch1 Note36 Vel100
2025-06-30 23:30:58,621 - INFO - Note On: Ch1 Note36 Vel100
2025-06-30 23:30:59,619 - INFO - Note Off: Ch1 Note36
2025-06-30 23:30:59,619 - INFO - Note Off: Ch1 Note36
2025-06-30 23:30:59,620 - INFO - Note Off: Ch1 Note36
2025-06-30 23:30:59,620 - INFO - Note On: Ch1 Note36 Vel100
2025-06-30 23:30:59,620 - INFO - Note On: Ch1 Note36 Vel100
2025-06-30 23:30:59,620 - INFO - Note On: Ch1 Note36 Vel100
2025-06-30 23:31:00,620 - INFO - Note Off: Ch1 Note36
2025-06-30 23:31:00,620 - INFO - Note Off: Ch1 Note36
2025-06-30 23:31:00,621 - INFO - Note Off: Ch1 Note36
2025-06-30 23:31:00,621 - INFO - Note On: Ch1 Note36 Vel100
2025-06-30 23:31:00,621 - INFO - Note On: Ch1 Note36 Vel100
2025-06-30 23:31:00,621 - INFO - Note On: Ch1 Note36 Vel100
2025-06-30 23:31:01,620 - INFO - Note Off: Ch1 Note36
2025-06-30 23:31:01,620 - INFO - Note Off: Ch1 Note36
2025-06-30 23:31:01,620 - INFO - Note Off: Ch1 Note36
2025-06-30 23:31:01,620 - INFO - Note On: Ch1 Note36 Vel100
2025-06-30 23:31:01,620 - INFO - Note On: Ch1 Note36 Vel100
2025-06-30 23:31:01,620 - INFO - Note On: Ch1 Note36 Vel100
2025-06-30 23:31:02,619 - INFO - Note Off: Ch1 Note36
2025-06-30 23:31:02,619 - INFO - Note Off: Ch1 Note36
2025-06-30 23:31:02,619 - INFO - Note Off: Ch1 Note36
2025-06-30 23:31:02,619 - INFO - Note On: Ch1 Note36 Vel100
2025-06-30 23:31:02,619 - INFO - Note On: Ch1 Note36 Vel100
2025-06-30 23:31:02,619 - INFO - Note On: Ch1 Note36 Vel100
2025-06-30 23:31:03,620 - INFO - Note Off: Ch1 Note36
2025-06-30 23:31:03,620 - INFO - Note Off: Ch1 Note36
2025-06-30 23:31:03,620 - INFO - Note Off: Ch1 Note36
2025-06-30 23:31:03,620 - INFO - Note On: Ch1 Note36 Vel100
2025-06-30 23:31:03,620 - INFO - Note On: Ch1 Note36 Vel100
2025-06-30 23:31:03,621 - INFO - Note On: Ch1 Note36 Vel100
2025-06-30 23:31:04,620 - INFO - Note Off: Ch1 Note36
2025-06-30 23:31:04,620 - INFO - Note Off: Ch1 Note36
2025-06-30 23:31:04,621 - INFO - Note Off: Ch1 Note36
2025-06-30 23:31:04,621 - INFO - Note On: Ch1 Note36 Vel100
2025-06-30 23:31:04,621 - INFO - Note On: Ch1 Note36 Vel100
2025-06-30 23:31:04,621 - INFO - Note On: Ch1 Note36 Vel100
2025-06-30 23:31:05,619 - INFO - Note Off: Ch1 Note36
2025-06-30 23:31:05,619 - INFO - Note Off: Ch1 Note36
2025-06-30 23:31:05,619 - INFO - Note Off: Ch1 Note36
2025-06-30 23:31:05,619 - INFO - Note On: Ch1 Note36 Vel100
2025-06-30 23:31:05,620 - INFO - Note On: Ch1 Note36 Vel100
2025-06-30 23:31:05,620 - INFO - Note On: Ch1 Note36 Vel100
2025-06-30 23:31:06,620 - INFO - Note Off: Ch1 Note36
2025-06-30 23:31:06,620 - INFO - Note Off: Ch1 Note36
2025-06-30 23:31:06,620 - INFO - Note Off: Ch1 Note36
2025-06-30 23:31:06,620 - INFO - Note On: Ch1 Note36 Vel100
2025-06-30 23:31:06,620 - INFO - Note On: Ch1 Note36 Vel100
2025-06-30 23:31:06,621 - INFO - Note On: Ch1 Note36 Vel100
2025-06-30 23:31:07,620 - INFO - Note Off: Ch1 Note36
2025-06-30 23:31:07,620 - INFO - Note Off: Ch1 Note36
2025-06-30 23:31:07,621 - INFO - Note Off: Ch1 Note36
2025-06-30 23:31:07,621 - INFO - Note On: Ch1 Note36 Vel100
2025-06-30 23:31:07,621 - INFO - Note On: Ch1 Note36 Vel100
2025-06-30 23:31:07,621 - INFO - Note On: Ch1 Note36 Vel100
2025-06-30 23:31:08,621 - INFO - Note Off: Ch1 Note36
2025-06-30 23:31:08,621 - INFO - Note Off: Ch1 Note36
2025-06-30 23:31:08,622 - INFO - Note Off: Ch1 Note36
2025-06-30 23:31:08,622 - INFO - Note On: Ch1 Note36 Vel100
2025-06-30 23:31:08,622 - INFO - Note On: Ch1 Note36 Vel100
2025-06-30 23:31:08,623 - INFO - Note On: Ch1 Note36 Vel100
2025-06-30 23:31:09,620 - INFO - Note Off: Ch1 Note36
2025-06-30 23:31:09,621 - INFO - Note Off: Ch1 Note36
2025-06-30 23:31:09,621 - INFO - Note Off: Ch1 Note36
2025-06-30 23:31:09,621 - INFO - Note On: Ch1 Note36 Vel100
2025-06-30 23:31:09,621 - INFO - Note On: Ch1 Note36 Vel100
2025-06-30 23:31:09,622 - INFO - Note On: Ch1 Note36 Vel100
2025-06-30 23:31:10,620 - INFO - Note Off: Ch1 Note36
2025-06-30 23:31:10,621 - INFO - Note Off: Ch1 Note36
2025-06-30 23:31:10,621 - INFO - Note Off: Ch1 Note36
2025-06-30 23:31:10,621 - INFO - Note On: Ch1 Note36 Vel100
2025-06-30 23:31:10,621 - INFO - Note On: Ch1 Note36 Vel100
2025-06-30 23:31:10,622 - INFO - Note On: Ch1 Note36 Vel100
2025-06-30 23:31:11,620 - INFO - Note Off: Ch1 Note36
2025-06-30 23:31:11,620 - INFO - Note Off: Ch1 Note36
2025-06-30 23:31:11,620 - INFO - Note Off: Ch1 Note36
2025-06-30 23:31:11,620 - INFO - Note On: Ch1 Note36 Vel100
2025-06-30 23:31:11,620 - INFO - Note On: Ch1 Note36 Vel100
2025-06-30 23:31:11,620 - INFO - Note On: Ch1 Note36 Vel100
2025-06-30 23:31:12,620 - INFO - Note Off: Ch1 Note36
2025-06-30 23:31:12,620 - INFO - Note Off: Ch1 Note36
2025-06-30 23:31:12,620 - INFO - Note Off: Ch1 Note36
2025-06-30 23:31:12,620 - INFO - Note On: Ch1 Note36 Vel100
2025-06-30 23:31:12,621 - INFO - Note On: Ch1 Note36 Vel100
2025-06-30 23:31:12,621 - INFO - Note On: Ch1 Note36 Vel100
2025-06-30 23:31:13,620 - INFO - Note Off: Ch1 Note36
2025-06-30 23:31:13,620 - INFO - Note Off: Ch1 Note36
2025-06-30 23:31:13,620 - INFO - Note Off: Ch1 Note36
2025-06-30 23:31:13,621 - INFO - Note On: Ch1 Note36 Vel100
2025-06-30 23:31:13,621 - INFO - Note On: Ch1 Note36 Vel100
2025-06-30 23:31:13,621 - INFO - Note On: Ch1 Note36 Vel100
2025-06-30 23:31:14,620 - INFO - Note Off: Ch1 Note36
2025-06-30 23:31:14,621 - INFO - Note Off: Ch1 Note36
2025-06-30 23:31:14,621 - INFO - Note Off: Ch1 Note36
2025-06-30 23:31:14,621 - INFO - Note On: Ch1 Note36 Vel100
2025-06-30 23:31:14,621 - INFO - Note On: Ch1 Note36 Vel100
2025-06-30 23:31:14,621 - INFO - Note On: Ch1 Note36 Vel100
2025-06-30 23:31:15,620 - INFO - Note Off: Ch1 Note36
2025-06-30 23:31:15,620 - INFO - Note Off: Ch1 Note36
2025-06-30 23:31:15,620 - INFO - Note Off: Ch1 Note36
2025-06-30 23:31:15,620 - INFO - Note On: Ch1 Note36 Vel100
2025-06-30 23:31:15,621 - INFO - Note On: Ch1 Note36 Vel100
2025-06-30 23:31:15,621 - INFO - Note On: Ch1 Note36 Vel100
2025-06-30 23:31:16,620 - INFO - Note Off: Ch1 Note36
2025-06-30 23:31:16,620 - INFO - Note Off: Ch1 Note36
2025-06-30 23:31:16,620 - INFO - Note Off: Ch1 Note36
2025-06-30 23:31:16,620 - INFO - Note On: Ch1 Note36 Vel100
2025-06-30 23:31:16,620 - INFO - Note On: Ch1 Note36 Vel100
2025-06-30 23:31:16,621 - INFO - Note On: Ch1 Note36 Vel100
2025-06-30 23:31:17,620 - INFO - Note Off: Ch1 Note36
2025-06-30 23:31:17,620 - INFO - Note Off: Ch1 Note36
2025-06-30 23:31:17,620 - INFO - Note Off: Ch1 Note36
2025-06-30 23:31:17,620 - INFO - Note On: Ch1 Note36 Vel100
2025-06-30 23:31:17,620 - INFO - Note On: Ch1 Note36 Vel100
2025-06-30 23:31:17,622 - INFO - Note On: Ch1 Note36 Vel100
2025-06-30 23:31:18,620 - INFO - Note Off: Ch1 Note36
2025-06-30 23:31:18,620 - INFO - Note Off: Ch1 Note36
2025-06-30 23:31:18,620 - INFO - Note Off: Ch1 Note36
2025-06-30 23:31:18,621 - INFO - Note On: Ch1 Note36 Vel100
2025-06-30 23:31:18,621 - INFO - Note On: Ch1 Note36 Vel100
2025-06-30 23:31:18,621 - INFO - Note On: Ch1 Note36 Vel100
2025-06-30 23:31:19,621 - INFO - Note Off: Ch1 Note36
2025-06-30 23:31:19,621 - INFO - Note Off: Ch1 Note36
2025-06-30 23:31:19,621 - INFO - Note Off: Ch1 Note36
2025-06-30 23:31:19,622 - INFO - Note On: Ch1 Note36 Vel100
2025-06-30 23:31:19,622 - INFO - Note On: Ch1 Note36 Vel100
2025-06-30 23:31:19,622 - INFO - Note On: Ch1 Note36 Vel100
2025-06-30 23:31:20,621 - INFO - Note Off: Ch1 Note36
2025-06-30 23:31:20,621 - INFO - Note Off: Ch1 Note36
2025-06-30 23:31:20,621 - INFO - Note Off: Ch1 Note36
2025-06-30 23:31:20,621 - INFO - Note On: Ch1 Note36 Vel100
2025-06-30 23:31:20,621 - INFO - Note On: Ch1 Note36 Vel100
2025-06-30 23:31:20,622 - INFO - Note On: Ch1 Note36 Vel100
2025-06-30 23:31:21,619 - INFO - Note Off: Ch1 Note36
2025-06-30 23:31:21,620 - INFO - Note Off: Ch1 Note36
2025-06-30 23:31:21,620 - INFO - Note Off: Ch1 Note36
2025-06-30 23:31:21,620 - INFO - Note On: Ch1 Note36 Vel100
2025-06-30 23:31:21,620 - INFO - Note On: Ch1 Note36 Vel100
2025-06-30 23:31:21,620 - INFO - Note On: Ch1 Note36 Vel100
2025-06-30 23:31:22,620 - INFO - Note Off: Ch1 Note36
2025-06-30 23:31:22,620 - INFO - Note Off: Ch1 Note36
2025-06-30 23:31:22,620 - INFO - Note Off: Ch1 Note36
2025-06-30 23:31:22,620 - INFO - Note On: Ch1 Note36 Vel100
2025-06-30 23:31:22,620 - INFO - Note On: Ch1 Note36 Vel100
2025-06-30 23:31:22,620 - INFO - Note On: Ch1 Note36 Vel100
2025-06-30 23:31:23,621 - INFO - Note Off: Ch1 Note36
2025-06-30 23:31:23,621 - INFO - Note Off: Ch1 Note36
2025-06-30 23:31:23,621 - INFO - Note Off: Ch1 Note36
2025-06-30 23:31:23,621 - INFO - Note On: Ch1 Note36 Vel100
2025-06-30 23:31:23,622 - INFO - Note On: Ch1 Note36 Vel100
2025-06-30 23:31:23,622 - INFO - Note On: Ch1 Note36 Vel100
2025-06-30 23:31:24,619 - INFO - Note Off: Ch1 Note36
2025-06-30 23:31:24,620 - INFO - Note Off: Ch1 Note36
2025-06-30 23:31:24,620 - INFO - Note Off: Ch1 Note36
2025-06-30 23:31:24,620 - INFO - Note On: Ch1 Note36 Vel100
2025-06-30 23:31:24,620 - INFO - Note On: Ch1 Note36 Vel100
2025-06-30 23:31:24,620 - INFO - Note On: Ch1 Note36 Vel100
2025-06-30 23:31:25,621 - INFO - Note Off: Ch1 Note36
2025-06-30 23:31:25,621 - INFO - Note Off: Ch1 Note36
2025-06-30 23:31:25,622 - INFO - Note Off: Ch1 Note36
2025-06-30 23:31:25,622 - INFO - Note On: Ch1 Note36 Vel100
2025-06-30 23:31:25,622 - INFO - Note On: Ch1 Note36 Vel100
2025-06-30 23:31:25,622 - INFO - Note On: Ch1 Note36 Vel100
2025-06-30 23:31:26,620 - INFO - Note Off: Ch1 Note36
2025-06-30 23:31:26,620 - INFO - Note Off: Ch1 Note36
2025-06-30 23:31:26,620 - INFO - Note Off: Ch1 Note36
2025-06-30 23:31:26,620 - INFO - Note On: Ch1 Note36 Vel100
2025-06-30 23:31:26,620 - INFO - Note On: Ch1 Note36 Vel100
2025-06-30 23:31:26,620 - INFO - Note On: Ch1 Note36 Vel100
2025-06-30 23:31:27,620 - INFO - Note Off: Ch1 Note36
2025-06-30 23:31:27,620 - INFO - Note Off: Ch1 Note36
2025-06-30 23:31:27,620 - INFO - Note Off: Ch1 Note36
2025-06-30 23:31:27,621 - INFO - Note On: Ch1 Note36 Vel100
2025-06-30 23:31:27,621 - INFO - Note On: Ch1 Note36 Vel100
2025-06-30 23:31:27,621 - INFO - Note On: Ch1 Note36 Vel100
2025-06-30 23:31:28,620 - INFO - Note Off: Ch1 Note36
2025-06-30 23:31:28,621 - INFO - Note Off: Ch1 Note36
2025-06-30 23:31:28,621 - INFO - Note Off: Ch1 Note36
2025-06-30 23:31:28,621 - INFO - Note On: Ch1 Note36 Vel100
2025-06-30 23:31:28,621 - INFO - Note On: Ch1 Note36 Vel100
2025-06-30 23:31:28,621 - INFO - Note On: Ch1 Note36 Vel100
2025-06-30 23:31:29,620 - INFO - Note Off: Ch1 Note36
2025-06-30 23:31:29,620 - INFO - Note Off: Ch1 Note36
2025-06-30 23:31:29,620 - INFO - Note Off: Ch1 Note36
2025-06-30 23:31:29,621 - INFO - Note On: Ch1 Note36 Vel100
2025-06-30 23:31:29,621 - INFO - Note On: Ch1 Note36 Vel100
2025-06-30 23:31:29,621 - INFO - Note On: Ch1 Note36 Vel100
2025-06-30 23:31:30,620 - INFO - Note Off: Ch1 Note36
2025-06-30 23:31:30,620 - INFO - Note Off: Ch1 Note36
2025-06-30 23:31:30,620 - INFO - Note Off: Ch1 Note36
2025-06-30 23:31:30,621 - INFO - Note On: Ch1 Note36 Vel100
2025-06-30 23:31:30,621 - INFO - Note On: Ch1 Note36 Vel100
2025-06-30 23:31:30,621 - INFO - Note On: Ch1 Note36 Vel100
2025-06-30 23:31:31,620 - INFO - Note Off: Ch1 Note36
2025-06-30 23:31:31,620 - INFO - Note Off: Ch1 Note36
2025-06-30 23:31:31,620 - INFO - Note Off: Ch1 Note36
2025-06-30 23:31:31,620 - INFO - Note On: Ch1 Note36 Vel100
2025-06-30 23:31:31,621 - INFO - Note On: Ch1 Note36 Vel100
2025-06-30 23:31:31,621 - INFO - Note On: Ch1 Note36 Vel100
2025-06-30 23:31:32,149 - INFO - Note On: Ch1 Note36 Vel100
2025-06-30 23:31:32,150 - INFO - Note Off: Ch1 Note36
2025-06-30 23:31:32,150 - INFO - Note Off: Ch1 Note36
2025-06-30 23:31:32,150 - INFO - Note Off: Ch1 Note36
2025-06-30 23:31:32,175 - INFO - Note On: Ch1 Note36 Vel100
2025-06-30 23:31:32,249 - INFO - Note Off: Ch1 Note36
2025-06-30 23:31:32,273 - INFO - Note Off: Ch1 Note36
2025-06-30 23:31:32,425 - INFO - Note On: Ch1 Note36 Vel100
2025-06-30 23:31:32,525 - INFO - Note Off: Ch1 Note36
2025-06-30 23:31:32,812 - INFO - Note On: Ch1 Note36 Vel100
2025-06-30 23:31:32,912 - INFO - Note Off: Ch1 Note36
2025-06-30 23:31:33,194 - INFO - Note On: Ch1 Note36 Vel100
2025-06-30 23:31:33,295 - INFO - Note Off: Ch1 Note36
2025-06-30 23:31:33,425 - INFO - Note On: Ch1 Note36 Vel100
2025-06-30 23:31:33,527 - INFO - Note Off: Ch1 Note36
2025-06-30 23:31:33,809 - INFO - Note On: Ch1 Note36 Vel100
2025-06-30 23:31:33,911 - INFO - Note Off: Ch1 Note36
2025-06-30 23:31:34,196 - INFO - Note On: Ch1 Note36 Vel100
2025-06-30 23:31:34,297 - INFO - Note Off: Ch1 Note36
2025-06-30 23:31:34,427 - INFO - Note On: Ch1 Note36 Vel100
2025-06-30 23:31:34,527 - INFO - Note Off: Ch1 Note36
2025-06-30 23:31:34,817 - INFO - Note On: Ch1 Note36 Vel100
2025-06-30 23:31:34,918 - INFO - Note Off: Ch1 Note36
2025-06-30 23:31:35,179 - INFO - Note On: Ch1 Note36 Vel100
2025-06-30 23:31:35,280 - INFO - Note Off: Ch1 Note36
2025-06-30 23:31:35,437 - INFO - Note On: Ch1 Note36 Vel100
2025-06-30 23:31:35,537 - INFO - Note Off: Ch1 Note36
2025-06-30 23:31:35,803 - INFO - Note On: Ch1 Note36 Vel100
2025-06-30 23:31:35,903 - INFO - Note Off: Ch1 Note36
2025-06-30 23:31:36,174 - INFO - Note On: Ch1 Note36 Vel100
2025-06-30 23:31:36,275 - INFO - Note Off: Ch1 Note36
2025-06-30 23:31:36,429 - INFO - Note On: Ch1 Note36 Vel100
2025-06-30 23:31:36,535 - INFO - Note Off: Ch1 Note36
2025-06-30 23:31:36,821 - INFO - Note On: Ch1 Note36 Vel100
2025-06-30 23:31:36,920 - INFO - Note Off: Ch1 Note36
2025-06-30 23:31:37,197 - INFO - Note On: Ch1 Note36 Vel100
2025-06-30 23:31:37,336 - INFO - Note Off: Ch1 Note36
2025-06-30 23:31:37,419 - INFO - Note On: Ch1 Note36 Vel100
2025-06-30 23:31:37,541 - INFO - Note Off: Ch1 Note36
2025-06-30 23:31:37,878 - INFO - Note On: Ch1 Note36 Vel100
2025-06-30 23:31:37,931 - INFO - Note Off: Ch1 Note36
2025-06-30 23:31:38,179 - INFO - Note On: Ch1 Note36 Vel100
2025-06-30 23:31:38,296 - INFO - Note Off: Ch1 Note36
2025-06-30 23:31:38,437 - INFO - Note On: Ch1 Note36 Vel100
2025-06-30 23:31:38,543 - INFO - Note Off: Ch1 Note36
2025-06-30 23:31:38,805 - INFO - Note On: Ch1 Note36 Vel100
2025-06-30 23:31:38,936 - INFO - Note Off: Ch1 Note36
2025-06-30 23:31:39,197 - INFO - Note On: Ch1 Note36 Vel100
2025-06-30 23:31:39,294 - INFO - Note Off: Ch1 Note36
2025-06-30 23:31:39,437 - INFO - Note On: Ch1 Note36 Vel100
2025-06-30 23:31:39,527 - INFO - Note Off: Ch1 Note36
2025-06-30 23:31:39,816 - INFO - Note On: Ch1 Note36 Vel100
2025-06-30 23:31:39,920 - INFO - Note Off: Ch1 Note36
2025-06-30 23:31:40,188 - INFO - Note On: Ch1 Note36 Vel100
2025-06-30 23:31:40,283 - INFO - Note Off: Ch1 Note36
2025-06-30 23:31:40,459 - INFO - Note On: Ch1 Note36 Vel100
2025-06-30 23:31:40,541 - INFO - Note Off: Ch1 Note36
2025-06-30 23:31:40,797 - INFO - Note On: Ch1 Note36 Vel100
2025-06-30 23:31:40,903 - INFO - Note Off: Ch1 Note36
